G04 (created by PCBNEW (2013-07-07 BZR 4022)-stable) date 10/14/2016 2:41:48 PM*
%MOIN*%
G04 Gerber Fmt 3.4, Leading zero omitted, Abs format*
%FSLAX34Y34*%
G01*
G70*
G90*
G04 APERTURE LIST*
%ADD10C,0.00590551*%
%ADD11C,0.0708661*%
%ADD12C,0.0905512*%
%ADD13C,0.23622*%
%ADD14C,0.0433071*%
%ADD15C,0.00984252*%
%ADD16C,0.019685*%
%ADD17C,0.01*%
G04 APERTURE END LIST*
G54D10*
G54D11*
X58177Y-44685D03*
X57177Y-44685D03*
X61523Y-44685D03*
X60523Y-44685D03*
X43799Y-32177D03*
X43799Y-33177D03*
G54D12*
X43307Y-34842D03*
X43307Y-36220D03*
X43307Y-37598D03*
X43307Y-38976D03*
X43307Y-40354D03*
X43307Y-41732D03*
X41929Y-34842D03*
X41929Y-36220D03*
X41929Y-37598D03*
X41929Y-38976D03*
X41929Y-40354D03*
X41929Y-41732D03*
G54D13*
X41062Y-32086D03*
X41062Y-44488D03*
G54D11*
X52362Y-44783D03*
X51377Y-44783D03*
X50393Y-44783D03*
X49409Y-44783D03*
X48425Y-44783D03*
X52362Y-46259D03*
X51377Y-46259D03*
X50393Y-46259D03*
X49409Y-46259D03*
X48425Y-46259D03*
X52362Y-31791D03*
X51377Y-31791D03*
X50393Y-31791D03*
X49409Y-31791D03*
X48425Y-31791D03*
X52362Y-30314D03*
X51377Y-30314D03*
X50393Y-30314D03*
X49409Y-30314D03*
X48425Y-30314D03*
G54D14*
X63287Y-35236D03*
X53149Y-36023D03*
X48917Y-37007D03*
X56397Y-36023D03*
X62303Y-40551D03*
X62303Y-36023D03*
X52460Y-39566D03*
X52460Y-40551D03*
X49803Y-40059D03*
X49015Y-40059D03*
X59940Y-38877D03*
X49704Y-37007D03*
X49803Y-38976D03*
X48818Y-38681D03*
X50000Y-37500D03*
X59940Y-38287D03*
X59645Y-39468D03*
X53543Y-38877D03*
G54D11*
X61318Y-31102D03*
X61318Y-30118D03*
X60334Y-30118D03*
X57381Y-31102D03*
X57381Y-30118D03*
X58366Y-30118D03*
X59350Y-30118D03*
G54D14*
X59055Y-39763D03*
X56397Y-40551D03*
X57874Y-37500D03*
X53543Y-37500D03*
X62992Y-36712D03*
X63582Y-40551D03*
X63877Y-45669D03*
X48031Y-40452D03*
X59350Y-34547D03*
G54D15*
X50393Y-44783D02*
X51377Y-44783D01*
X48425Y-44783D02*
X49409Y-44783D01*
X50393Y-46259D02*
X51377Y-46259D01*
X48425Y-46259D02*
X49409Y-46259D01*
X50393Y-31791D02*
X51377Y-31791D01*
X48425Y-31791D02*
X49409Y-31791D01*
X50393Y-30314D02*
X51377Y-30314D01*
X48425Y-30314D02*
X49409Y-30314D01*
G54D16*
X62303Y-36023D02*
X62893Y-36023D01*
X63287Y-35629D02*
X63287Y-35236D01*
X62893Y-36023D02*
X63287Y-35629D01*
G54D15*
X56397Y-36023D02*
X53149Y-36023D01*
X53149Y-36023D02*
X49114Y-36023D01*
X48917Y-36220D02*
X48917Y-37007D01*
X49114Y-36023D02*
X48917Y-36220D01*
X62303Y-36023D02*
X56397Y-36023D01*
X62303Y-40551D02*
X62303Y-36023D01*
X52460Y-40551D02*
X52460Y-39566D01*
X60523Y-44685D02*
X59834Y-43996D01*
X49803Y-41141D02*
X49803Y-40059D01*
X50000Y-41338D02*
X49803Y-41141D01*
X57185Y-41338D02*
X50000Y-41338D01*
X57381Y-41535D02*
X57185Y-41338D01*
X57381Y-43799D02*
X57381Y-41535D01*
X57578Y-43996D02*
X57381Y-43799D01*
X59834Y-43996D02*
X57578Y-43996D01*
X57185Y-44685D02*
X57177Y-44685D01*
X57185Y-41732D02*
X57185Y-44685D01*
X56988Y-41535D02*
X57185Y-41732D01*
X49212Y-41535D02*
X56988Y-41535D01*
X49015Y-41338D02*
X49212Y-41535D01*
X49015Y-40059D02*
X49015Y-41338D01*
X41929Y-40354D02*
X42618Y-39665D01*
X59547Y-38484D02*
X59940Y-38877D01*
X49704Y-38484D02*
X59547Y-38484D01*
X49114Y-39074D02*
X49704Y-38484D01*
X48523Y-39074D02*
X49114Y-39074D01*
X48129Y-38681D02*
X48523Y-39074D01*
X44586Y-38681D02*
X48129Y-38681D01*
X43602Y-39665D02*
X44586Y-38681D01*
X42618Y-39665D02*
X43602Y-39665D01*
X43307Y-36220D02*
X43996Y-36909D01*
X48818Y-37893D02*
X49704Y-37007D01*
X44192Y-37893D02*
X48818Y-37893D01*
X43996Y-37696D02*
X44192Y-37893D01*
X43996Y-36909D02*
X43996Y-37696D01*
X43307Y-40354D02*
X44783Y-38877D01*
X49507Y-39271D02*
X49803Y-38976D01*
X48326Y-39271D02*
X49507Y-39271D01*
X47933Y-38877D02*
X48326Y-39271D01*
X44783Y-38877D02*
X47933Y-38877D01*
X43799Y-38484D02*
X43307Y-38976D01*
X48622Y-38484D02*
X43799Y-38484D01*
X48818Y-38681D02*
X48622Y-38484D01*
X43307Y-37598D02*
X43799Y-38090D01*
X49409Y-38090D02*
X50000Y-37500D01*
X43799Y-38090D02*
X49409Y-38090D01*
X41929Y-38976D02*
X42618Y-38287D01*
X42618Y-38287D02*
X59940Y-38287D01*
X53740Y-38681D02*
X53543Y-38877D01*
X58858Y-38681D02*
X53740Y-38681D01*
X59645Y-39468D02*
X58858Y-38681D01*
X41929Y-41732D02*
X42618Y-41043D01*
X50492Y-38877D02*
X53543Y-38877D01*
X49901Y-39468D02*
X50492Y-38877D01*
X48129Y-39468D02*
X49901Y-39468D01*
X47736Y-39074D02*
X48129Y-39468D01*
X44980Y-39074D02*
X47736Y-39074D01*
X43996Y-40059D02*
X44980Y-39074D01*
X43996Y-40748D02*
X43996Y-40059D01*
X43700Y-41043D02*
X43996Y-40748D01*
X42618Y-41043D02*
X43700Y-41043D01*
X59350Y-30118D02*
X60334Y-30118D01*
X61318Y-30118D02*
X61318Y-31102D01*
X57381Y-30118D02*
X57381Y-31102D01*
X59350Y-30118D02*
X58366Y-30118D01*
X59055Y-39763D02*
X59055Y-41141D01*
X56397Y-40551D02*
X56397Y-41141D01*
X60728Y-37696D02*
X60728Y-41141D01*
X60531Y-37500D02*
X60728Y-37696D01*
X53543Y-37500D02*
X57874Y-37500D01*
X57874Y-37500D02*
X60531Y-37500D01*
X62992Y-36712D02*
X64271Y-36712D01*
X63582Y-40551D02*
X63582Y-41141D01*
X63877Y-45669D02*
X63877Y-41141D01*
X59350Y-34547D02*
X59350Y-32677D01*
X48818Y-39665D02*
X48031Y-40452D01*
X50984Y-39665D02*
X48818Y-39665D01*
X51181Y-39862D02*
X50984Y-39665D01*
X51181Y-40944D02*
X51181Y-39862D01*
X51377Y-41141D02*
X51181Y-40944D01*
X64074Y-41141D02*
X63877Y-41141D01*
X63877Y-41141D02*
X63582Y-41141D01*
X63582Y-41141D02*
X60728Y-41141D01*
X60728Y-41141D02*
X59055Y-41141D01*
X59055Y-41141D02*
X56397Y-41141D01*
X56397Y-41141D02*
X51377Y-41141D01*
X64271Y-40944D02*
X64074Y-41141D01*
X64271Y-32677D02*
X64271Y-36712D01*
X64271Y-36712D02*
X64271Y-40944D01*
X64074Y-32480D02*
X64271Y-32677D01*
X59547Y-32480D02*
X64074Y-32480D01*
X59350Y-32677D02*
X59547Y-32480D01*
G54D16*
X43799Y-33177D02*
X44192Y-33177D01*
X59350Y-35039D02*
X59350Y-34547D01*
X58956Y-35433D02*
X59350Y-35039D01*
X44980Y-35433D02*
X58956Y-35433D01*
X44586Y-35039D02*
X44980Y-35433D01*
X44586Y-33570D02*
X44586Y-35039D01*
X44192Y-33177D02*
X44586Y-33570D01*
G54D15*
X43799Y-33177D02*
X42125Y-33177D01*
X41929Y-33374D02*
X41929Y-34842D01*
X42125Y-33177D02*
X41929Y-33374D01*
G54D10*
G36*
X64516Y-46997D02*
X56053Y-46997D01*
X56053Y-41737D01*
X56904Y-41737D01*
X56983Y-41815D01*
X56983Y-44216D01*
X56890Y-44255D01*
X56747Y-44397D01*
X56670Y-44583D01*
X56670Y-44785D01*
X56747Y-44971D01*
X56889Y-45114D01*
X57075Y-45191D01*
X57277Y-45191D01*
X57463Y-45114D01*
X57606Y-44972D01*
X57677Y-44801D01*
X57747Y-44971D01*
X57889Y-45114D01*
X58075Y-45191D01*
X58277Y-45191D01*
X58463Y-45114D01*
X58606Y-44972D01*
X58683Y-44786D01*
X58683Y-44584D01*
X58606Y-44398D01*
X58464Y-44255D01*
X58324Y-44197D01*
X59751Y-44197D01*
X60052Y-44498D01*
X60017Y-44583D01*
X60016Y-44785D01*
X60093Y-44971D01*
X60236Y-45114D01*
X60422Y-45191D01*
X60623Y-45191D01*
X60810Y-45114D01*
X60952Y-44972D01*
X61023Y-44801D01*
X61093Y-44971D01*
X61236Y-45114D01*
X61422Y-45191D01*
X61623Y-45191D01*
X61810Y-45114D01*
X61952Y-44972D01*
X62030Y-44786D01*
X62030Y-44584D01*
X61953Y-44398D01*
X61811Y-44255D01*
X61624Y-44178D01*
X61423Y-44178D01*
X61236Y-44255D01*
X61094Y-44397D01*
X61023Y-44568D01*
X60953Y-44398D01*
X60811Y-44255D01*
X60624Y-44178D01*
X60423Y-44178D01*
X60337Y-44213D01*
X59977Y-43853D01*
X59911Y-43809D01*
X59834Y-43794D01*
X57662Y-43794D01*
X57583Y-43715D01*
X57583Y-41535D01*
X57583Y-41535D01*
X57583Y-41535D01*
X57568Y-41458D01*
X57524Y-41392D01*
X57524Y-41392D01*
X57327Y-41196D01*
X57262Y-41152D01*
X57185Y-41137D01*
X56053Y-41137D01*
X56053Y-38882D01*
X58774Y-38882D01*
X59279Y-39387D01*
X59276Y-39394D01*
X59276Y-39541D01*
X59332Y-39677D01*
X59436Y-39781D01*
X59571Y-39837D01*
X59718Y-39837D01*
X59854Y-39781D01*
X59958Y-39677D01*
X60014Y-39542D01*
X60014Y-39395D01*
X59958Y-39259D01*
X59945Y-39246D01*
X60014Y-39246D01*
X60149Y-39190D01*
X60253Y-39087D01*
X60309Y-38951D01*
X60309Y-38804D01*
X60253Y-38669D01*
X60167Y-38582D01*
X60253Y-38496D01*
X60309Y-38361D01*
X60309Y-38214D01*
X60253Y-38078D01*
X60150Y-37974D01*
X60014Y-37918D01*
X59867Y-37918D01*
X59732Y-37974D01*
X59628Y-38078D01*
X59625Y-38085D01*
X56053Y-38085D01*
X56053Y-36225D01*
X56081Y-36225D01*
X56084Y-36232D01*
X56188Y-36336D01*
X56323Y-36392D01*
X56470Y-36392D01*
X56606Y-36336D01*
X56710Y-36232D01*
X56713Y-36225D01*
X61987Y-36225D01*
X61990Y-36232D01*
X62093Y-36336D01*
X62101Y-36339D01*
X62101Y-40235D01*
X62094Y-40238D01*
X61990Y-40341D01*
X61934Y-40477D01*
X61934Y-40624D01*
X61990Y-40759D01*
X62093Y-40863D01*
X62229Y-40920D01*
X62376Y-40920D01*
X62511Y-40864D01*
X62615Y-40760D01*
X62671Y-40624D01*
X62672Y-40478D01*
X62616Y-40342D01*
X62512Y-40238D01*
X62504Y-40235D01*
X62504Y-36339D01*
X62511Y-36336D01*
X62574Y-36274D01*
X62893Y-36274D01*
X62989Y-36255D01*
X63071Y-36200D01*
X63464Y-35807D01*
X63519Y-35725D01*
X63519Y-35725D01*
X63538Y-35629D01*
X63538Y-35507D01*
X63599Y-35445D01*
X63656Y-35309D01*
X63656Y-35163D01*
X63600Y-35027D01*
X63496Y-34923D01*
X63361Y-34867D01*
X63214Y-34867D01*
X63078Y-34923D01*
X62974Y-35026D01*
X62918Y-35162D01*
X62918Y-35309D01*
X62974Y-35444D01*
X63036Y-35507D01*
X63036Y-35526D01*
X62789Y-35772D01*
X62574Y-35772D01*
X62512Y-35711D01*
X62376Y-35654D01*
X62230Y-35654D01*
X62094Y-35710D01*
X61990Y-35814D01*
X61987Y-35822D01*
X56713Y-35822D01*
X56710Y-35814D01*
X56606Y-35711D01*
X56471Y-35654D01*
X56324Y-35654D01*
X56188Y-35710D01*
X56085Y-35814D01*
X56081Y-35822D01*
X56053Y-35822D01*
X56053Y-29577D01*
X64516Y-29577D01*
X64516Y-46997D01*
X64516Y-46997D01*
G37*
G54D17*
X64516Y-46997D02*
X56053Y-46997D01*
X56053Y-41737D01*
X56904Y-41737D01*
X56983Y-41815D01*
X56983Y-44216D01*
X56890Y-44255D01*
X56747Y-44397D01*
X56670Y-44583D01*
X56670Y-44785D01*
X56747Y-44971D01*
X56889Y-45114D01*
X57075Y-45191D01*
X57277Y-45191D01*
X57463Y-45114D01*
X57606Y-44972D01*
X57677Y-44801D01*
X57747Y-44971D01*
X57889Y-45114D01*
X58075Y-45191D01*
X58277Y-45191D01*
X58463Y-45114D01*
X58606Y-44972D01*
X58683Y-44786D01*
X58683Y-44584D01*
X58606Y-44398D01*
X58464Y-44255D01*
X58324Y-44197D01*
X59751Y-44197D01*
X60052Y-44498D01*
X60017Y-44583D01*
X60016Y-44785D01*
X60093Y-44971D01*
X60236Y-45114D01*
X60422Y-45191D01*
X60623Y-45191D01*
X60810Y-45114D01*
X60952Y-44972D01*
X61023Y-44801D01*
X61093Y-44971D01*
X61236Y-45114D01*
X61422Y-45191D01*
X61623Y-45191D01*
X61810Y-45114D01*
X61952Y-44972D01*
X62030Y-44786D01*
X62030Y-44584D01*
X61953Y-44398D01*
X61811Y-44255D01*
X61624Y-44178D01*
X61423Y-44178D01*
X61236Y-44255D01*
X61094Y-44397D01*
X61023Y-44568D01*
X60953Y-44398D01*
X60811Y-44255D01*
X60624Y-44178D01*
X60423Y-44178D01*
X60337Y-44213D01*
X59977Y-43853D01*
X59911Y-43809D01*
X59834Y-43794D01*
X57662Y-43794D01*
X57583Y-43715D01*
X57583Y-41535D01*
X57583Y-41535D01*
X57583Y-41535D01*
X57568Y-41458D01*
X57524Y-41392D01*
X57524Y-41392D01*
X57327Y-41196D01*
X57262Y-41152D01*
X57185Y-41137D01*
X56053Y-41137D01*
X56053Y-38882D01*
X58774Y-38882D01*
X59279Y-39387D01*
X59276Y-39394D01*
X59276Y-39541D01*
X59332Y-39677D01*
X59436Y-39781D01*
X59571Y-39837D01*
X59718Y-39837D01*
X59854Y-39781D01*
X59958Y-39677D01*
X60014Y-39542D01*
X60014Y-39395D01*
X59958Y-39259D01*
X59945Y-39246D01*
X60014Y-39246D01*
X60149Y-39190D01*
X60253Y-39087D01*
X60309Y-38951D01*
X60309Y-38804D01*
X60253Y-38669D01*
X60167Y-38582D01*
X60253Y-38496D01*
X60309Y-38361D01*
X60309Y-38214D01*
X60253Y-38078D01*
X60150Y-37974D01*
X60014Y-37918D01*
X59867Y-37918D01*
X59732Y-37974D01*
X59628Y-38078D01*
X59625Y-38085D01*
X56053Y-38085D01*
X56053Y-36225D01*
X56081Y-36225D01*
X56084Y-36232D01*
X56188Y-36336D01*
X56323Y-36392D01*
X56470Y-36392D01*
X56606Y-36336D01*
X56710Y-36232D01*
X56713Y-36225D01*
X61987Y-36225D01*
X61990Y-36232D01*
X62093Y-36336D01*
X62101Y-36339D01*
X62101Y-40235D01*
X62094Y-40238D01*
X61990Y-40341D01*
X61934Y-40477D01*
X61934Y-40624D01*
X61990Y-40759D01*
X62093Y-40863D01*
X62229Y-40920D01*
X62376Y-40920D01*
X62511Y-40864D01*
X62615Y-40760D01*
X62671Y-40624D01*
X62672Y-40478D01*
X62616Y-40342D01*
X62512Y-40238D01*
X62504Y-40235D01*
X62504Y-36339D01*
X62511Y-36336D01*
X62574Y-36274D01*
X62893Y-36274D01*
X62989Y-36255D01*
X63071Y-36200D01*
X63464Y-35807D01*
X63519Y-35725D01*
X63519Y-35725D01*
X63538Y-35629D01*
X63538Y-35507D01*
X63599Y-35445D01*
X63656Y-35309D01*
X63656Y-35163D01*
X63600Y-35027D01*
X63496Y-34923D01*
X63361Y-34867D01*
X63214Y-34867D01*
X63078Y-34923D01*
X62974Y-35026D01*
X62918Y-35162D01*
X62918Y-35309D01*
X62974Y-35444D01*
X63036Y-35507D01*
X63036Y-35526D01*
X62789Y-35772D01*
X62574Y-35772D01*
X62512Y-35711D01*
X62376Y-35654D01*
X62230Y-35654D01*
X62094Y-35710D01*
X61990Y-35814D01*
X61987Y-35822D01*
X56713Y-35822D01*
X56710Y-35814D01*
X56606Y-35711D01*
X56471Y-35654D01*
X56324Y-35654D01*
X56188Y-35710D01*
X56085Y-35814D01*
X56081Y-35822D01*
X56053Y-35822D01*
X56053Y-29577D01*
X64516Y-29577D01*
X64516Y-46997D01*
G54D10*
G36*
X55851Y-46997D02*
X39223Y-46997D01*
X39223Y-29577D01*
X55851Y-29577D01*
X55851Y-35182D01*
X52908Y-35182D01*
X45084Y-35182D01*
X44935Y-35033D01*
X44935Y-32524D01*
X42456Y-32524D01*
X41186Y-33795D01*
X41186Y-35683D01*
X42662Y-35683D01*
X42662Y-38085D01*
X42618Y-38085D01*
X42618Y-38085D01*
X42540Y-38101D01*
X42534Y-38105D01*
X42534Y-37478D01*
X42442Y-37256D01*
X42272Y-37085D01*
X42050Y-36993D01*
X41809Y-36993D01*
X41586Y-37085D01*
X41416Y-37255D01*
X41324Y-37477D01*
X41323Y-37718D01*
X41415Y-37940D01*
X41585Y-38111D01*
X41808Y-38203D01*
X42048Y-38203D01*
X42271Y-38111D01*
X42441Y-37941D01*
X42534Y-37719D01*
X42534Y-37478D01*
X42534Y-38105D01*
X42475Y-38144D01*
X42475Y-38144D01*
X42190Y-38429D01*
X42050Y-38371D01*
X41809Y-38371D01*
X41586Y-38463D01*
X41416Y-38633D01*
X41324Y-38855D01*
X41323Y-39096D01*
X41415Y-39318D01*
X41585Y-39489D01*
X41808Y-39581D01*
X42048Y-39581D01*
X42271Y-39489D01*
X42441Y-39319D01*
X42534Y-39097D01*
X42534Y-38856D01*
X42475Y-38714D01*
X42701Y-38488D01*
X42938Y-38488D01*
X42794Y-38633D01*
X42702Y-38855D01*
X42701Y-39096D01*
X42793Y-39318D01*
X42938Y-39463D01*
X42618Y-39463D01*
X42618Y-39463D01*
X42540Y-39479D01*
X42475Y-39522D01*
X42475Y-39522D01*
X42190Y-39807D01*
X42050Y-39749D01*
X41809Y-39749D01*
X41586Y-39841D01*
X41416Y-40011D01*
X41324Y-40233D01*
X41323Y-40474D01*
X41415Y-40696D01*
X41585Y-40867D01*
X41808Y-40959D01*
X42048Y-40959D01*
X42271Y-40867D01*
X42441Y-40697D01*
X42534Y-40475D01*
X42534Y-40234D01*
X42475Y-40092D01*
X42701Y-39866D01*
X42938Y-39866D01*
X42794Y-40011D01*
X42702Y-40233D01*
X42701Y-40474D01*
X42793Y-40696D01*
X42938Y-40841D01*
X42618Y-40841D01*
X42618Y-40841D01*
X42540Y-40857D01*
X42475Y-40900D01*
X42475Y-40900D01*
X42190Y-41185D01*
X42050Y-41127D01*
X41809Y-41127D01*
X41586Y-41218D01*
X41416Y-41389D01*
X41324Y-41611D01*
X41323Y-41852D01*
X41415Y-42074D01*
X41585Y-42244D01*
X41808Y-42337D01*
X42048Y-42337D01*
X42271Y-42245D01*
X42441Y-42075D01*
X42534Y-41853D01*
X42534Y-41612D01*
X42475Y-41470D01*
X42701Y-41244D01*
X42938Y-41244D01*
X42794Y-41389D01*
X42702Y-41611D01*
X42701Y-41852D01*
X42793Y-42074D01*
X42963Y-42244D01*
X43186Y-42337D01*
X43426Y-42337D01*
X43649Y-42245D01*
X43819Y-42075D01*
X43912Y-41853D01*
X43912Y-41612D01*
X43820Y-41389D01*
X43675Y-41244D01*
X43700Y-41244D01*
X43777Y-41229D01*
X43843Y-41185D01*
X44138Y-40890D01*
X44182Y-40825D01*
X44197Y-40748D01*
X44197Y-40142D01*
X45063Y-39276D01*
X47652Y-39276D01*
X47987Y-39611D01*
X47987Y-39611D01*
X48052Y-39654D01*
X48129Y-39670D01*
X48529Y-39670D01*
X48112Y-40086D01*
X48105Y-40083D01*
X47958Y-40083D01*
X47822Y-40139D01*
X47718Y-40243D01*
X47662Y-40379D01*
X47662Y-40525D01*
X47718Y-40661D01*
X47822Y-40765D01*
X47957Y-40821D01*
X48104Y-40821D01*
X48240Y-40765D01*
X48344Y-40661D01*
X48400Y-40526D01*
X48400Y-40379D01*
X48397Y-40372D01*
X48646Y-40122D01*
X48646Y-40132D01*
X48702Y-40267D01*
X48806Y-40371D01*
X48814Y-40374D01*
X48814Y-41338D01*
X48829Y-41415D01*
X48873Y-41481D01*
X49070Y-41677D01*
X49070Y-41677D01*
X49135Y-41721D01*
X49212Y-41737D01*
X49212Y-41737D01*
X49212Y-41737D01*
X55851Y-41737D01*
X55851Y-46997D01*
X55851Y-46997D01*
G37*
G54D17*
X55851Y-46997D02*
X39223Y-46997D01*
X39223Y-29577D01*
X55851Y-29577D01*
X55851Y-35182D01*
X52908Y-35182D01*
X45084Y-35182D01*
X44935Y-35033D01*
X44935Y-32524D01*
X42456Y-32524D01*
X41186Y-33795D01*
X41186Y-35683D01*
X42662Y-35683D01*
X42662Y-38085D01*
X42618Y-38085D01*
X42618Y-38085D01*
X42540Y-38101D01*
X42534Y-38105D01*
X42534Y-37478D01*
X42442Y-37256D01*
X42272Y-37085D01*
X42050Y-36993D01*
X41809Y-36993D01*
X41586Y-37085D01*
X41416Y-37255D01*
X41324Y-37477D01*
X41323Y-37718D01*
X41415Y-37940D01*
X41585Y-38111D01*
X41808Y-38203D01*
X42048Y-38203D01*
X42271Y-38111D01*
X42441Y-37941D01*
X42534Y-37719D01*
X42534Y-37478D01*
X42534Y-38105D01*
X42475Y-38144D01*
X42475Y-38144D01*
X42190Y-38429D01*
X42050Y-38371D01*
X41809Y-38371D01*
X41586Y-38463D01*
X41416Y-38633D01*
X41324Y-38855D01*
X41323Y-39096D01*
X41415Y-39318D01*
X41585Y-39489D01*
X41808Y-39581D01*
X42048Y-39581D01*
X42271Y-39489D01*
X42441Y-39319D01*
X42534Y-39097D01*
X42534Y-38856D01*
X42475Y-38714D01*
X42701Y-38488D01*
X42938Y-38488D01*
X42794Y-38633D01*
X42702Y-38855D01*
X42701Y-39096D01*
X42793Y-39318D01*
X42938Y-39463D01*
X42618Y-39463D01*
X42618Y-39463D01*
X42540Y-39479D01*
X42475Y-39522D01*
X42475Y-39522D01*
X42190Y-39807D01*
X42050Y-39749D01*
X41809Y-39749D01*
X41586Y-39841D01*
X41416Y-40011D01*
X41324Y-40233D01*
X41323Y-40474D01*
X41415Y-40696D01*
X41585Y-40867D01*
X41808Y-40959D01*
X42048Y-40959D01*
X42271Y-40867D01*
X42441Y-40697D01*
X42534Y-40475D01*
X42534Y-40234D01*
X42475Y-40092D01*
X42701Y-39866D01*
X42938Y-39866D01*
X42794Y-40011D01*
X42702Y-40233D01*
X42701Y-40474D01*
X42793Y-40696D01*
X42938Y-40841D01*
X42618Y-40841D01*
X42618Y-40841D01*
X42540Y-40857D01*
X42475Y-40900D01*
X42475Y-40900D01*
X42190Y-41185D01*
X42050Y-41127D01*
X41809Y-41127D01*
X41586Y-41218D01*
X41416Y-41389D01*
X41324Y-41611D01*
X41323Y-41852D01*
X41415Y-42074D01*
X41585Y-42244D01*
X41808Y-42337D01*
X42048Y-42337D01*
X42271Y-42245D01*
X42441Y-42075D01*
X42534Y-41853D01*
X42534Y-41612D01*
X42475Y-41470D01*
X42701Y-41244D01*
X42938Y-41244D01*
X42794Y-41389D01*
X42702Y-41611D01*
X42701Y-41852D01*
X42793Y-42074D01*
X42963Y-42244D01*
X43186Y-42337D01*
X43426Y-42337D01*
X43649Y-42245D01*
X43819Y-42075D01*
X43912Y-41853D01*
X43912Y-41612D01*
X43820Y-41389D01*
X43675Y-41244D01*
X43700Y-41244D01*
X43777Y-41229D01*
X43843Y-41185D01*
X44138Y-40890D01*
X44182Y-40825D01*
X44197Y-40748D01*
X44197Y-40142D01*
X45063Y-39276D01*
X47652Y-39276D01*
X47987Y-39611D01*
X47987Y-39611D01*
X48052Y-39654D01*
X48129Y-39670D01*
X48529Y-39670D01*
X48112Y-40086D01*
X48105Y-40083D01*
X47958Y-40083D01*
X47822Y-40139D01*
X47718Y-40243D01*
X47662Y-40379D01*
X47662Y-40525D01*
X47718Y-40661D01*
X47822Y-40765D01*
X47957Y-40821D01*
X48104Y-40821D01*
X48240Y-40765D01*
X48344Y-40661D01*
X48400Y-40526D01*
X48400Y-40379D01*
X48397Y-40372D01*
X48646Y-40122D01*
X48646Y-40132D01*
X48702Y-40267D01*
X48806Y-40371D01*
X48814Y-40374D01*
X48814Y-41338D01*
X48829Y-41415D01*
X48873Y-41481D01*
X49070Y-41677D01*
X49070Y-41677D01*
X49135Y-41721D01*
X49212Y-41737D01*
X49212Y-41737D01*
X49212Y-41737D01*
X55851Y-41737D01*
X55851Y-46997D01*
G54D10*
G36*
X52705Y-35822D02*
X49114Y-35822D01*
X49114Y-35822D01*
X49037Y-35837D01*
X48971Y-35881D01*
X48971Y-35881D01*
X48774Y-36077D01*
X48731Y-36143D01*
X48715Y-36220D01*
X48715Y-36692D01*
X48708Y-36694D01*
X48604Y-36798D01*
X48548Y-36934D01*
X48548Y-37080D01*
X48604Y-37216D01*
X48708Y-37320D01*
X48843Y-37376D01*
X48990Y-37376D01*
X49093Y-37334D01*
X48735Y-37692D01*
X44276Y-37692D01*
X44197Y-37613D01*
X44197Y-36909D01*
X44197Y-36909D01*
X44197Y-36909D01*
X44182Y-36832D01*
X44138Y-36766D01*
X44138Y-36766D01*
X43853Y-36482D01*
X43912Y-36341D01*
X43912Y-36100D01*
X43912Y-34722D01*
X43820Y-34500D01*
X43650Y-34329D01*
X43427Y-34237D01*
X43187Y-34237D01*
X42964Y-34329D01*
X42794Y-34499D01*
X42702Y-34721D01*
X42701Y-34962D01*
X42793Y-35184D01*
X42963Y-35355D01*
X43186Y-35447D01*
X43426Y-35447D01*
X43649Y-35355D01*
X43819Y-35185D01*
X43912Y-34963D01*
X43912Y-34722D01*
X43912Y-36100D01*
X43820Y-35878D01*
X43650Y-35707D01*
X43427Y-35615D01*
X43187Y-35615D01*
X42964Y-35707D01*
X42864Y-35806D01*
X42864Y-35481D01*
X41388Y-35481D01*
X41388Y-33878D01*
X42540Y-32727D01*
X44733Y-32727D01*
X44733Y-35384D01*
X52705Y-35384D01*
X52705Y-35822D01*
X52705Y-35822D01*
G37*
G54D17*
X52705Y-35822D02*
X49114Y-35822D01*
X49114Y-35822D01*
X49037Y-35837D01*
X48971Y-35881D01*
X48971Y-35881D01*
X48774Y-36077D01*
X48731Y-36143D01*
X48715Y-36220D01*
X48715Y-36692D01*
X48708Y-36694D01*
X48604Y-36798D01*
X48548Y-36934D01*
X48548Y-37080D01*
X48604Y-37216D01*
X48708Y-37320D01*
X48843Y-37376D01*
X48990Y-37376D01*
X49093Y-37334D01*
X48735Y-37692D01*
X44276Y-37692D01*
X44197Y-37613D01*
X44197Y-36909D01*
X44197Y-36909D01*
X44197Y-36909D01*
X44182Y-36832D01*
X44138Y-36766D01*
X44138Y-36766D01*
X43853Y-36482D01*
X43912Y-36341D01*
X43912Y-36100D01*
X43912Y-34722D01*
X43820Y-34500D01*
X43650Y-34329D01*
X43427Y-34237D01*
X43187Y-34237D01*
X42964Y-34329D01*
X42794Y-34499D01*
X42702Y-34721D01*
X42701Y-34962D01*
X42793Y-35184D01*
X42963Y-35355D01*
X43186Y-35447D01*
X43426Y-35447D01*
X43649Y-35355D01*
X43819Y-35185D01*
X43912Y-34963D01*
X43912Y-34722D01*
X43912Y-36100D01*
X43820Y-35878D01*
X43650Y-35707D01*
X43427Y-35615D01*
X43187Y-35615D01*
X42964Y-35707D01*
X42864Y-35806D01*
X42864Y-35481D01*
X41388Y-35481D01*
X41388Y-33878D01*
X42540Y-32727D01*
X44733Y-32727D01*
X44733Y-35384D01*
X52705Y-35384D01*
X52705Y-35822D01*
M02*
