M48
METRIC,TZ
T1C0.500
T2C1.000
T3C1.450
T4C4.000
%
G90
G05
T1
X122.Y-102.75
X124.Y-98.25
X124.25Y-94.
X124.5Y-101.75
X126.25Y-94.
X126.5Y-99.
X126.5Y-101.75
X127.Y-95.25
X133.25Y-100.5
X133.25Y-103.
X135.Y-91.5
X136.Y-95.25
X136.Y-98.75
X143.25Y-91.5
X143.25Y-103.
X147.Y-95.25
X150.Y-101.
X150.75Y-87.75
X151.5Y-100.25
X152.25Y-97.25
X152.25Y-98.75
X158.25Y-91.5
X158.25Y-103.
X160.Y-93.25
X160.75Y-89.5
X161.5Y-103.
X162.25Y-116.
T2
X111.25Y-81.73
X111.25Y-84.27
X123.Y-77.
X123.Y-80.75
X123.Y-113.75
X123.Y-117.5
X125.5Y-77.
X125.5Y-80.75
X125.5Y-113.75
X125.5Y-117.5
X128.Y-77.
X128.Y-80.75
X128.Y-113.75
X128.Y-117.5
X130.5Y-77.
X130.5Y-80.75
X130.5Y-113.75
X130.5Y-117.5
X133.Y-77.
X133.Y-80.75
X133.Y-113.75
X133.Y-117.5
X145.23Y-113.5
X145.75Y-76.5
X145.75Y-79.
X147.77Y-113.5
X148.25Y-76.5
X150.75Y-76.5
X153.25Y-76.5
X153.73Y-113.5
X155.75Y-76.5
X155.75Y-79.
X156.27Y-113.5
T3
X106.5Y-88.5
X106.5Y-92.
X106.5Y-95.5
X106.5Y-99.
X106.5Y-102.5
X106.5Y-106.
X110.Y-88.5
X110.Y-92.
X110.Y-95.5
X110.Y-99.
X110.Y-102.5
X110.Y-106.
T4
X104.3Y-81.5
X104.3Y-113.
T0
M30
