G04 (created by PCBNEW (2013-07-07 BZR 4022)-stable) date 10/14/2016 2:41:48 PM*
%MOIN*%
G04 Gerber Fmt 3.4, Leading zero omitted, Abs format*
%FSLAX34Y34*%
G01*
G70*
G90*
G04 APERTURE LIST*
%ADD10C,0.00590551*%
%ADD11R,0.0177165X0.0590551*%
%ADD12R,0.0590551X0.0177165*%
%ADD13C,0.0708661*%
%ADD14R,0.0472441X0.0472441*%
%ADD15R,0.144X0.08*%
%ADD16R,0.04X0.08*%
%ADD17R,0.0708661X0.02*%
%ADD18R,0.0551181X0.0629921*%
%ADD19R,0.0905512X0.0826772*%
%ADD20C,0.0905512*%
%ADD21C,0.23622*%
%ADD22R,0.063X0.125984*%
%ADD23R,0.0275591X0.110236*%
%ADD24R,0.23622X0.240157*%
%ADD25C,0.0433071*%
%ADD26C,0.00984252*%
%ADD27C,0.019685*%
%ADD28C,0.0492126*%
%ADD29C,0.01*%
G04 APERTURE END LIST*
G54D10*
G54D11*
X59350Y-36037D03*
X59035Y-36037D03*
X58720Y-36037D03*
X58405Y-36037D03*
X58090Y-36037D03*
X57775Y-36037D03*
X59665Y-36037D03*
X59980Y-36037D03*
X60295Y-36037D03*
X60610Y-36037D03*
X60925Y-36037D03*
X59350Y-40537D03*
X59035Y-40537D03*
X58720Y-40537D03*
X58405Y-40537D03*
X58090Y-40537D03*
X57775Y-40537D03*
X59665Y-40537D03*
X59980Y-40537D03*
X60295Y-40537D03*
X60610Y-40537D03*
X60925Y-40537D03*
G54D12*
X57100Y-38287D03*
X61600Y-38287D03*
X57100Y-38602D03*
X61600Y-38602D03*
X61600Y-38917D03*
X57100Y-38917D03*
X57100Y-39232D03*
X61600Y-39232D03*
X61600Y-39547D03*
X57100Y-39547D03*
X57100Y-39862D03*
X61600Y-39862D03*
X61600Y-37972D03*
X57100Y-37972D03*
X57100Y-37657D03*
X61600Y-37657D03*
X61600Y-37342D03*
X57100Y-37342D03*
X57100Y-37027D03*
X61600Y-37027D03*
X61600Y-36712D03*
X57100Y-36712D03*
G54D13*
X58177Y-44685D03*
X57177Y-44685D03*
X61523Y-44685D03*
X60523Y-44685D03*
X43799Y-32177D03*
X43799Y-33177D03*
G54D14*
X63877Y-30216D03*
X63877Y-46358D03*
G54D15*
X59350Y-31081D03*
G54D16*
X59350Y-33681D03*
X60250Y-33681D03*
X58450Y-33681D03*
G54D17*
X54281Y-36537D03*
X54281Y-37537D03*
X54281Y-38037D03*
X54281Y-38537D03*
X54281Y-39037D03*
X54281Y-39537D03*
X54281Y-40037D03*
X51624Y-40037D03*
X51624Y-39537D03*
X51624Y-39037D03*
X51624Y-38537D03*
X51624Y-38037D03*
X51624Y-37537D03*
X51624Y-37037D03*
X51624Y-36537D03*
X54281Y-37037D03*
X50738Y-36537D03*
X50738Y-37537D03*
X50738Y-38037D03*
X50738Y-38537D03*
X50738Y-39037D03*
X50738Y-39537D03*
X50738Y-40037D03*
X48080Y-40037D03*
X48080Y-39537D03*
X48080Y-39037D03*
X48080Y-38537D03*
X48080Y-38037D03*
X48080Y-37537D03*
X48080Y-37037D03*
X48080Y-36537D03*
X50738Y-37037D03*
G54D18*
X61653Y-36023D03*
X62953Y-36023D03*
X57047Y-40551D03*
X55747Y-40551D03*
X61653Y-40551D03*
X62953Y-40551D03*
X57047Y-36023D03*
X55747Y-36023D03*
G54D19*
X55413Y-31614D03*
X55413Y-33346D03*
G54D20*
X43307Y-34842D03*
X43307Y-36220D03*
X43307Y-37598D03*
X43307Y-38976D03*
X43307Y-40354D03*
X43307Y-41732D03*
X41929Y-34842D03*
X41929Y-36220D03*
X41929Y-37598D03*
X41929Y-38976D03*
X41929Y-40354D03*
X41929Y-41732D03*
G54D21*
X41062Y-32086D03*
X41062Y-44488D03*
G54D22*
X62696Y-33444D03*
X62696Y-31515D03*
G54D23*
X45362Y-33543D03*
G54D24*
X46259Y-31062D03*
G54D23*
X45811Y-33543D03*
X46708Y-33543D03*
X47157Y-33543D03*
X47157Y-43031D03*
G54D24*
X46259Y-45511D03*
G54D23*
X46708Y-43031D03*
X45811Y-43031D03*
X45362Y-43031D03*
G54D13*
X52362Y-44783D03*
X51377Y-44783D03*
X50393Y-44783D03*
X49409Y-44783D03*
X48425Y-44783D03*
X52362Y-46259D03*
X51377Y-46259D03*
X50393Y-46259D03*
X49409Y-46259D03*
X48425Y-46259D03*
X52362Y-31791D03*
X51377Y-31791D03*
X50393Y-31791D03*
X49409Y-31791D03*
X48425Y-31791D03*
X52362Y-30314D03*
X51377Y-30314D03*
X50393Y-30314D03*
X49409Y-30314D03*
X48425Y-30314D03*
G54D25*
X63287Y-35236D03*
X53149Y-36023D03*
X48917Y-37007D03*
X56397Y-36023D03*
X62303Y-40551D03*
X62303Y-36023D03*
X52460Y-39566D03*
X52460Y-40551D03*
X49803Y-40059D03*
X49015Y-40059D03*
X59940Y-38877D03*
X49704Y-37007D03*
X49803Y-38976D03*
X48818Y-38681D03*
X50000Y-37500D03*
X59940Y-38287D03*
X59645Y-39468D03*
X53543Y-38877D03*
G54D13*
X61318Y-31102D03*
X61318Y-30118D03*
X60334Y-30118D03*
X57381Y-31102D03*
X57381Y-30118D03*
X58366Y-30118D03*
X59350Y-30118D03*
G54D25*
X59055Y-39763D03*
X56397Y-40551D03*
X57874Y-37500D03*
X53543Y-37500D03*
X62992Y-36712D03*
X63582Y-40551D03*
X63877Y-45669D03*
X48031Y-40452D03*
X59350Y-34547D03*
G54D26*
X48425Y-45511D02*
X48425Y-44783D01*
X51377Y-44783D02*
X52362Y-44783D01*
X49409Y-44783D02*
X50393Y-44783D01*
X46259Y-45511D02*
X48425Y-45511D01*
X51377Y-46259D02*
X52362Y-46259D01*
X49409Y-46259D02*
X50393Y-46259D01*
X48425Y-45511D02*
X48425Y-46259D01*
X48425Y-45511D02*
X48425Y-45511D01*
X48425Y-31003D02*
X48425Y-31791D01*
X51377Y-31791D02*
X52362Y-31791D01*
X49409Y-31791D02*
X50393Y-31791D01*
X48425Y-31062D02*
X48425Y-31003D01*
X48425Y-31003D02*
X48425Y-30314D01*
X51377Y-30314D02*
X52362Y-30314D01*
X49409Y-30314D02*
X50393Y-30314D01*
X46259Y-31062D02*
X48425Y-31062D01*
X48425Y-31062D02*
X55216Y-31062D01*
X55413Y-31259D02*
X55413Y-31614D01*
X55216Y-31062D02*
X55413Y-31259D01*
X41062Y-44488D02*
X42047Y-45472D01*
X46259Y-45472D02*
X46259Y-45511D01*
X42047Y-45472D02*
X46259Y-45472D01*
X43799Y-32177D02*
X43799Y-31102D01*
X41062Y-32086D02*
X42047Y-31102D01*
X46259Y-31102D02*
X46259Y-31062D01*
X42047Y-31102D02*
X43799Y-31102D01*
X43799Y-31102D02*
X46259Y-31102D01*
X41062Y-36220D02*
X41929Y-36220D01*
X41062Y-32086D02*
X41062Y-36220D01*
X41062Y-36220D02*
X41062Y-44488D01*
G54D27*
X63287Y-33444D02*
X62696Y-33444D01*
X63287Y-35236D02*
X63287Y-33444D01*
G54D26*
X51624Y-40037D02*
X52952Y-40037D01*
X53149Y-39840D02*
X53149Y-36023D01*
X52952Y-40037D02*
X53149Y-39840D01*
X48080Y-37007D02*
X48080Y-37037D01*
X48917Y-37007D02*
X48080Y-37007D01*
X56397Y-36023D02*
X57047Y-36023D01*
X61653Y-40551D02*
X62303Y-40551D01*
X62303Y-36023D02*
X61653Y-36023D01*
G54D28*
X60250Y-33681D02*
X60250Y-35236D01*
X60250Y-35236D02*
X62696Y-35236D01*
X62696Y-35236D02*
X62696Y-33444D01*
G54D26*
X48080Y-37537D02*
X48080Y-37037D01*
X48080Y-38037D02*
X48080Y-37537D01*
X48080Y-38537D02*
X48080Y-38037D01*
X59350Y-40537D02*
X59350Y-40846D01*
X61653Y-40610D02*
X61653Y-40551D01*
X61220Y-41043D02*
X61653Y-40610D01*
X59547Y-41043D02*
X61220Y-41043D01*
X59350Y-40846D02*
X59547Y-41043D01*
X41929Y-37598D02*
X42618Y-38287D01*
X48080Y-38582D02*
X48080Y-38537D01*
X47637Y-38582D02*
X48080Y-38582D01*
X47342Y-38287D02*
X47637Y-38582D01*
X42618Y-38287D02*
X47342Y-38287D01*
X59035Y-36037D02*
X59035Y-36417D01*
X59035Y-36417D02*
X58838Y-36614D01*
X58838Y-36614D02*
X57677Y-36614D01*
X57677Y-36614D02*
X57086Y-36023D01*
X57086Y-36023D02*
X57047Y-36023D01*
X61600Y-38287D02*
X61220Y-38287D01*
X61220Y-38287D02*
X61023Y-38090D01*
X61023Y-38090D02*
X61023Y-36614D01*
X61023Y-36614D02*
X61614Y-36023D01*
X61614Y-36023D02*
X61653Y-36023D01*
X57100Y-37342D02*
X55118Y-37342D01*
X54281Y-37500D02*
X54281Y-37537D01*
X54960Y-37500D02*
X54281Y-37500D01*
X55118Y-37342D02*
X54960Y-37500D01*
X46708Y-43031D02*
X46708Y-43602D01*
X51624Y-39074D02*
X51624Y-39037D01*
X52263Y-39074D02*
X51624Y-39074D01*
X52460Y-39271D02*
X52263Y-39074D01*
X52460Y-39566D02*
X52460Y-39271D01*
X52460Y-40649D02*
X52460Y-40551D01*
X48720Y-40649D02*
X52460Y-40649D01*
X48523Y-40846D02*
X48720Y-40649D01*
X48523Y-43602D02*
X48523Y-40846D01*
X48326Y-43799D02*
X48523Y-43602D01*
X46905Y-43799D02*
X48326Y-43799D01*
X46708Y-43602D02*
X46905Y-43799D01*
X45362Y-43031D02*
X45362Y-41929D01*
X45165Y-41732D02*
X43307Y-41732D01*
X45362Y-41929D02*
X45165Y-41732D01*
X47157Y-33543D02*
X47157Y-34645D01*
X46960Y-34842D02*
X43307Y-34842D01*
X47157Y-34645D02*
X46960Y-34842D01*
X45811Y-33543D02*
X45811Y-32972D01*
X51624Y-36318D02*
X51624Y-36537D01*
X51427Y-36122D02*
X51624Y-36318D01*
X48720Y-36122D02*
X51427Y-36122D01*
X48523Y-35925D02*
X48720Y-36122D01*
X48523Y-32972D02*
X48523Y-35925D01*
X48326Y-32775D02*
X48523Y-32972D01*
X46007Y-32775D02*
X48326Y-32775D01*
X45811Y-32972D02*
X46007Y-32775D01*
G54D28*
X58450Y-33681D02*
X58450Y-35236D01*
X55413Y-35236D02*
X55413Y-33346D01*
X58450Y-35236D02*
X55413Y-35236D01*
G54D26*
X61600Y-39232D02*
X64074Y-39232D01*
X58177Y-44677D02*
X58177Y-44685D01*
X58858Y-43996D02*
X58177Y-44677D01*
X64074Y-43996D02*
X58858Y-43996D01*
X64271Y-43799D02*
X64074Y-43996D01*
X64271Y-39429D02*
X64271Y-43799D01*
X64074Y-39232D02*
X64271Y-39429D01*
X50738Y-40059D02*
X50738Y-40037D01*
X49803Y-40059D02*
X50738Y-40059D01*
X50738Y-39537D02*
X49212Y-39537D01*
X49015Y-39734D02*
X49015Y-40059D01*
X49212Y-39537D02*
X49015Y-39734D01*
X61600Y-38917D02*
X64271Y-38917D01*
X61523Y-44677D02*
X61523Y-44685D01*
X62007Y-44192D02*
X61523Y-44677D01*
X64271Y-44192D02*
X62007Y-44192D01*
X64468Y-43996D02*
X64271Y-44192D01*
X64468Y-39114D02*
X64468Y-43996D01*
X64271Y-38917D02*
X64468Y-39114D01*
X57100Y-37027D02*
X54281Y-37027D01*
X54281Y-37027D02*
X54281Y-37037D01*
X60925Y-39862D02*
X61600Y-39862D01*
X59940Y-38877D02*
X60925Y-39862D01*
X51624Y-37037D02*
X50738Y-37037D01*
X50738Y-37007D02*
X50738Y-37037D01*
X49704Y-37007D02*
X50738Y-37007D01*
X50242Y-38537D02*
X50738Y-38537D01*
X49803Y-38976D02*
X50242Y-38537D01*
X51624Y-38537D02*
X50738Y-38537D01*
X50738Y-38037D02*
X49507Y-38037D01*
X48864Y-38681D02*
X48818Y-38681D01*
X49507Y-38037D02*
X48864Y-38681D01*
X51624Y-38037D02*
X50738Y-38037D01*
X51624Y-37537D02*
X50738Y-37537D01*
X50738Y-37500D02*
X50738Y-37537D01*
X50000Y-37500D02*
X50738Y-37500D01*
X61200Y-39547D02*
X61600Y-39547D01*
X59940Y-38287D02*
X61200Y-39547D01*
X57100Y-38602D02*
X57480Y-38602D01*
X57086Y-40551D02*
X57047Y-40551D01*
X57677Y-39960D02*
X57086Y-40551D01*
X57677Y-38799D02*
X57677Y-39960D01*
X57480Y-38602D02*
X57677Y-38799D01*
X57100Y-36712D02*
X55118Y-36712D01*
X54281Y-36515D02*
X54281Y-36537D01*
X54921Y-36515D02*
X54281Y-36515D01*
X55118Y-36712D02*
X54921Y-36515D01*
X57100Y-37657D02*
X55216Y-37657D01*
X54281Y-38051D02*
X54281Y-38037D01*
X54822Y-38051D02*
X54281Y-38051D01*
X55216Y-37657D02*
X54822Y-38051D01*
X59665Y-40537D02*
X59665Y-39468D01*
X59665Y-39468D02*
X59645Y-39468D01*
X54281Y-40059D02*
X54281Y-40037D01*
X53740Y-40059D02*
X54281Y-40059D01*
X53543Y-39862D02*
X53740Y-40059D01*
X53543Y-38877D02*
X53543Y-39862D01*
X57100Y-38917D02*
X55118Y-38917D01*
X54281Y-39074D02*
X54281Y-39037D01*
X54960Y-39074D02*
X54281Y-39074D01*
X55118Y-38917D02*
X54960Y-39074D01*
X57100Y-37972D02*
X55314Y-37972D01*
X54281Y-38562D02*
X54281Y-38537D01*
X54724Y-38562D02*
X54281Y-38562D01*
X55314Y-37972D02*
X54724Y-38562D01*
X48031Y-40452D02*
X48326Y-40748D01*
X47157Y-43307D02*
X47157Y-43031D01*
X47354Y-43503D02*
X47157Y-43307D01*
X48129Y-43503D02*
X47354Y-43503D01*
X48326Y-43307D02*
X48129Y-43503D01*
X48326Y-40748D02*
X48326Y-43307D01*
X43799Y-33177D02*
X45362Y-33177D01*
X45362Y-33177D02*
X45362Y-33543D01*
X60334Y-30118D02*
X61318Y-30118D01*
X61318Y-31102D02*
X61318Y-31081D01*
X61318Y-31081D02*
X61318Y-31102D01*
X61318Y-31102D02*
X61318Y-31081D01*
X59350Y-31081D02*
X59350Y-30118D01*
X58366Y-30118D02*
X57381Y-30118D01*
X59350Y-36037D02*
X59350Y-37303D01*
X59153Y-37500D02*
X57874Y-37500D01*
X59350Y-37303D02*
X59153Y-37500D01*
X61600Y-37972D02*
X62795Y-37972D01*
X62992Y-37775D02*
X62992Y-36712D01*
X62795Y-37972D02*
X62992Y-37775D01*
X59035Y-40537D02*
X59035Y-39763D01*
X59035Y-39763D02*
X59055Y-39763D01*
X55747Y-40551D02*
X56397Y-40551D01*
X57100Y-38287D02*
X57677Y-38287D01*
X57874Y-38090D02*
X57874Y-37500D01*
X57677Y-38287D02*
X57874Y-38090D01*
X55747Y-36023D02*
X53740Y-36023D01*
X53543Y-36220D02*
X53543Y-37500D01*
X53740Y-36023D02*
X53543Y-36220D01*
X62953Y-36023D02*
X62953Y-36712D01*
X62953Y-36712D02*
X62992Y-36712D01*
X62953Y-40551D02*
X63582Y-40551D01*
X63877Y-46358D02*
X63877Y-45669D01*
X48031Y-40037D02*
X48080Y-40037D01*
X48031Y-40452D02*
X48031Y-40037D01*
X62696Y-31515D02*
X63681Y-31515D01*
X63877Y-31318D02*
X63877Y-30216D01*
X63681Y-31515D02*
X63877Y-31318D01*
X59350Y-31081D02*
X61318Y-31081D01*
X61318Y-31081D02*
X62500Y-31081D01*
X62696Y-31278D02*
X62696Y-31515D01*
X62500Y-31081D02*
X62696Y-31278D01*
X59350Y-33681D02*
X59350Y-31081D01*
G54D27*
X59350Y-34547D02*
X59350Y-33681D01*
G54D26*
X48080Y-40037D02*
X48080Y-39537D01*
G54D10*
G36*
X48473Y-36288D02*
X48465Y-36285D01*
X48404Y-36285D01*
X47696Y-36285D01*
X47640Y-36308D01*
X47597Y-36350D01*
X47574Y-36406D01*
X47573Y-36467D01*
X47573Y-36667D01*
X47597Y-36723D01*
X47639Y-36766D01*
X47690Y-36787D01*
X47640Y-36808D01*
X47597Y-36850D01*
X47574Y-36906D01*
X47573Y-36967D01*
X47573Y-37167D01*
X47597Y-37223D01*
X47639Y-37266D01*
X47690Y-37287D01*
X47640Y-37308D01*
X47597Y-37350D01*
X47574Y-37406D01*
X47573Y-37467D01*
X47573Y-37667D01*
X47597Y-37723D01*
X47639Y-37766D01*
X47690Y-37787D01*
X47640Y-37808D01*
X47597Y-37850D01*
X47574Y-37906D01*
X47573Y-37967D01*
X47573Y-38040D01*
X43720Y-38040D01*
X43819Y-37941D01*
X43912Y-37719D01*
X43912Y-37478D01*
X43820Y-37256D01*
X43650Y-37085D01*
X43427Y-36993D01*
X43187Y-36993D01*
X42964Y-37085D01*
X42794Y-37255D01*
X42766Y-37322D01*
X42766Y-36496D01*
X42793Y-36562D01*
X42963Y-36733D01*
X43186Y-36825D01*
X43426Y-36825D01*
X43649Y-36733D01*
X43819Y-36563D01*
X43912Y-36341D01*
X43912Y-36100D01*
X43820Y-35878D01*
X43650Y-35707D01*
X43427Y-35615D01*
X43187Y-35615D01*
X42964Y-35707D01*
X42794Y-35877D01*
X42766Y-35944D01*
X42766Y-34174D01*
X43423Y-33517D01*
X43511Y-33606D01*
X43697Y-33683D01*
X43899Y-33683D01*
X44085Y-33606D01*
X44228Y-33464D01*
X44264Y-33378D01*
X45072Y-33378D01*
X45072Y-34124D01*
X45095Y-34180D01*
X45137Y-34223D01*
X45193Y-34246D01*
X45254Y-34246D01*
X45530Y-34246D01*
X45586Y-34223D01*
X45586Y-34223D01*
X45586Y-34223D01*
X45642Y-34246D01*
X45703Y-34246D01*
X45978Y-34246D01*
X46035Y-34223D01*
X46077Y-34180D01*
X46101Y-34124D01*
X46101Y-34064D01*
X46101Y-33022D01*
X46418Y-33022D01*
X46418Y-34124D01*
X46441Y-34180D01*
X46484Y-34223D01*
X46540Y-34246D01*
X46601Y-34246D01*
X46876Y-34246D01*
X46932Y-34223D01*
X46975Y-34180D01*
X46998Y-34124D01*
X46998Y-34064D01*
X46998Y-33022D01*
X48288Y-33022D01*
X48322Y-33055D01*
X48322Y-35925D01*
X48337Y-36002D01*
X48381Y-36067D01*
X48473Y-36160D01*
X48473Y-36288D01*
X48473Y-36288D01*
G37*
G54D29*
X48473Y-36288D02*
X48465Y-36285D01*
X48404Y-36285D01*
X47696Y-36285D01*
X47640Y-36308D01*
X47597Y-36350D01*
X47574Y-36406D01*
X47573Y-36467D01*
X47573Y-36667D01*
X47597Y-36723D01*
X47639Y-36766D01*
X47690Y-36787D01*
X47640Y-36808D01*
X47597Y-36850D01*
X47574Y-36906D01*
X47573Y-36967D01*
X47573Y-37167D01*
X47597Y-37223D01*
X47639Y-37266D01*
X47690Y-37287D01*
X47640Y-37308D01*
X47597Y-37350D01*
X47574Y-37406D01*
X47573Y-37467D01*
X47573Y-37667D01*
X47597Y-37723D01*
X47639Y-37766D01*
X47690Y-37787D01*
X47640Y-37808D01*
X47597Y-37850D01*
X47574Y-37906D01*
X47573Y-37967D01*
X47573Y-38040D01*
X43720Y-38040D01*
X43819Y-37941D01*
X43912Y-37719D01*
X43912Y-37478D01*
X43820Y-37256D01*
X43650Y-37085D01*
X43427Y-36993D01*
X43187Y-36993D01*
X42964Y-37085D01*
X42794Y-37255D01*
X42766Y-37322D01*
X42766Y-36496D01*
X42793Y-36562D01*
X42963Y-36733D01*
X43186Y-36825D01*
X43426Y-36825D01*
X43649Y-36733D01*
X43819Y-36563D01*
X43912Y-36341D01*
X43912Y-36100D01*
X43820Y-35878D01*
X43650Y-35707D01*
X43427Y-35615D01*
X43187Y-35615D01*
X42964Y-35707D01*
X42794Y-35877D01*
X42766Y-35944D01*
X42766Y-34174D01*
X43423Y-33517D01*
X43511Y-33606D01*
X43697Y-33683D01*
X43899Y-33683D01*
X44085Y-33606D01*
X44228Y-33464D01*
X44264Y-33378D01*
X45072Y-33378D01*
X45072Y-34124D01*
X45095Y-34180D01*
X45137Y-34223D01*
X45193Y-34246D01*
X45254Y-34246D01*
X45530Y-34246D01*
X45586Y-34223D01*
X45586Y-34223D01*
X45586Y-34223D01*
X45642Y-34246D01*
X45703Y-34246D01*
X45978Y-34246D01*
X46035Y-34223D01*
X46077Y-34180D01*
X46101Y-34124D01*
X46101Y-34064D01*
X46101Y-33022D01*
X46418Y-33022D01*
X46418Y-34124D01*
X46441Y-34180D01*
X46484Y-34223D01*
X46540Y-34246D01*
X46601Y-34246D01*
X46876Y-34246D01*
X46932Y-34223D01*
X46975Y-34180D01*
X46998Y-34124D01*
X46998Y-34064D01*
X46998Y-33022D01*
X48288Y-33022D01*
X48322Y-33055D01*
X48322Y-35925D01*
X48337Y-36002D01*
X48381Y-36067D01*
X48473Y-36160D01*
X48473Y-36288D01*
G54D10*
G36*
X48125Y-43223D02*
X48046Y-43302D01*
X47447Y-43302D01*
X47447Y-42450D01*
X47424Y-42394D01*
X47381Y-42351D01*
X47325Y-42327D01*
X47265Y-42327D01*
X46989Y-42327D01*
X46933Y-42351D01*
X46933Y-42351D01*
X46932Y-42351D01*
X46876Y-42327D01*
X46816Y-42327D01*
X46540Y-42327D01*
X46484Y-42351D01*
X46441Y-42393D01*
X46418Y-42449D01*
X46418Y-42510D01*
X46418Y-43612D01*
X46434Y-43650D01*
X46085Y-43650D01*
X46101Y-43613D01*
X46101Y-43552D01*
X46101Y-42450D01*
X46078Y-42394D01*
X46035Y-42351D01*
X45979Y-42327D01*
X45918Y-42327D01*
X45643Y-42327D01*
X45587Y-42351D01*
X45544Y-42393D01*
X45520Y-42449D01*
X45520Y-42510D01*
X45520Y-43612D01*
X45536Y-43650D01*
X43918Y-43650D01*
X42766Y-42498D01*
X42766Y-40630D01*
X42793Y-40696D01*
X42963Y-40867D01*
X43186Y-40959D01*
X43426Y-40959D01*
X43649Y-40867D01*
X43819Y-40697D01*
X43912Y-40475D01*
X43912Y-40234D01*
X43820Y-40012D01*
X43650Y-39841D01*
X43427Y-39749D01*
X43187Y-39749D01*
X42964Y-39841D01*
X42794Y-40011D01*
X42766Y-40078D01*
X42766Y-39252D01*
X42793Y-39318D01*
X42963Y-39489D01*
X43186Y-39581D01*
X43426Y-39581D01*
X43649Y-39489D01*
X43819Y-39319D01*
X43912Y-39097D01*
X43912Y-38856D01*
X43820Y-38634D01*
X43675Y-38488D01*
X47259Y-38488D01*
X47495Y-38725D01*
X47560Y-38768D01*
X47637Y-38784D01*
X47682Y-38784D01*
X47690Y-38787D01*
X47640Y-38808D01*
X47597Y-38850D01*
X47574Y-38906D01*
X47573Y-38967D01*
X47573Y-39167D01*
X47597Y-39223D01*
X47639Y-39266D01*
X47690Y-39287D01*
X47640Y-39308D01*
X47597Y-39350D01*
X47574Y-39406D01*
X47573Y-39467D01*
X47573Y-39667D01*
X47597Y-39723D01*
X47639Y-39766D01*
X47690Y-39787D01*
X47640Y-39808D01*
X47597Y-39850D01*
X47574Y-39906D01*
X47573Y-39967D01*
X47573Y-40167D01*
X47597Y-40223D01*
X47639Y-40266D01*
X47695Y-40289D01*
X47699Y-40289D01*
X47662Y-40379D01*
X47662Y-40525D01*
X47718Y-40661D01*
X47822Y-40765D01*
X47957Y-40821D01*
X48104Y-40821D01*
X48112Y-40818D01*
X48125Y-40831D01*
X48125Y-43223D01*
X48125Y-43223D01*
G37*
G54D29*
X48125Y-43223D02*
X48046Y-43302D01*
X47447Y-43302D01*
X47447Y-42450D01*
X47424Y-42394D01*
X47381Y-42351D01*
X47325Y-42327D01*
X47265Y-42327D01*
X46989Y-42327D01*
X46933Y-42351D01*
X46933Y-42351D01*
X46932Y-42351D01*
X46876Y-42327D01*
X46816Y-42327D01*
X46540Y-42327D01*
X46484Y-42351D01*
X46441Y-42393D01*
X46418Y-42449D01*
X46418Y-42510D01*
X46418Y-43612D01*
X46434Y-43650D01*
X46085Y-43650D01*
X46101Y-43613D01*
X46101Y-43552D01*
X46101Y-42450D01*
X46078Y-42394D01*
X46035Y-42351D01*
X45979Y-42327D01*
X45918Y-42327D01*
X45643Y-42327D01*
X45587Y-42351D01*
X45544Y-42393D01*
X45520Y-42449D01*
X45520Y-42510D01*
X45520Y-43612D01*
X45536Y-43650D01*
X43918Y-43650D01*
X42766Y-42498D01*
X42766Y-40630D01*
X42793Y-40696D01*
X42963Y-40867D01*
X43186Y-40959D01*
X43426Y-40959D01*
X43649Y-40867D01*
X43819Y-40697D01*
X43912Y-40475D01*
X43912Y-40234D01*
X43820Y-40012D01*
X43650Y-39841D01*
X43427Y-39749D01*
X43187Y-39749D01*
X42964Y-39841D01*
X42794Y-40011D01*
X42766Y-40078D01*
X42766Y-39252D01*
X42793Y-39318D01*
X42963Y-39489D01*
X43186Y-39581D01*
X43426Y-39581D01*
X43649Y-39489D01*
X43819Y-39319D01*
X43912Y-39097D01*
X43912Y-38856D01*
X43820Y-38634D01*
X43675Y-38488D01*
X47259Y-38488D01*
X47495Y-38725D01*
X47560Y-38768D01*
X47637Y-38784D01*
X47682Y-38784D01*
X47690Y-38787D01*
X47640Y-38808D01*
X47597Y-38850D01*
X47574Y-38906D01*
X47573Y-38967D01*
X47573Y-39167D01*
X47597Y-39223D01*
X47639Y-39266D01*
X47690Y-39287D01*
X47640Y-39308D01*
X47597Y-39350D01*
X47574Y-39406D01*
X47573Y-39467D01*
X47573Y-39667D01*
X47597Y-39723D01*
X47639Y-39766D01*
X47690Y-39787D01*
X47640Y-39808D01*
X47597Y-39850D01*
X47574Y-39906D01*
X47573Y-39967D01*
X47573Y-40167D01*
X47597Y-40223D01*
X47639Y-40266D01*
X47695Y-40289D01*
X47699Y-40289D01*
X47662Y-40379D01*
X47662Y-40525D01*
X47718Y-40661D01*
X47822Y-40765D01*
X47957Y-40821D01*
X48104Y-40821D01*
X48112Y-40818D01*
X48125Y-40831D01*
X48125Y-43223D01*
G54D10*
G36*
X64516Y-46997D02*
X64424Y-46997D01*
X64424Y-46904D01*
X64424Y-45812D01*
X63331Y-45812D01*
X63331Y-46904D01*
X64424Y-46904D01*
X64424Y-46997D01*
X56053Y-46997D01*
X56053Y-39118D01*
X56652Y-39118D01*
X56652Y-39173D01*
X56652Y-39351D01*
X56668Y-39389D01*
X56652Y-39428D01*
X56652Y-39488D01*
X56652Y-39666D01*
X56668Y-39704D01*
X56652Y-39743D01*
X56652Y-39803D01*
X56652Y-39981D01*
X56675Y-40037D01*
X56718Y-40080D01*
X56734Y-40086D01*
X56685Y-40106D01*
X56642Y-40149D01*
X56619Y-40205D01*
X56619Y-40266D01*
X56619Y-40896D01*
X56642Y-40952D01*
X56685Y-40995D01*
X56741Y-41018D01*
X56802Y-41018D01*
X57353Y-41018D01*
X57409Y-40995D01*
X57452Y-40952D01*
X57475Y-40896D01*
X57475Y-40835D01*
X57475Y-40447D01*
X57534Y-40388D01*
X57534Y-40862D01*
X57557Y-40918D01*
X57600Y-40961D01*
X57656Y-40985D01*
X57716Y-40985D01*
X57894Y-40985D01*
X57932Y-40969D01*
X57971Y-40985D01*
X58031Y-40985D01*
X58209Y-40985D01*
X58247Y-40969D01*
X58286Y-40985D01*
X58346Y-40985D01*
X58524Y-40985D01*
X58562Y-40969D01*
X58601Y-40985D01*
X58661Y-40985D01*
X58839Y-40985D01*
X58895Y-40961D01*
X58938Y-40919D01*
X58961Y-40863D01*
X58961Y-40802D01*
X58961Y-40211D01*
X58938Y-40155D01*
X58895Y-40113D01*
X58839Y-40089D01*
X58778Y-40089D01*
X58601Y-40089D01*
X58562Y-40105D01*
X58524Y-40089D01*
X58463Y-40089D01*
X58286Y-40089D01*
X58247Y-40105D01*
X58209Y-40089D01*
X58148Y-40089D01*
X57971Y-40089D01*
X57932Y-40105D01*
X57894Y-40089D01*
X57833Y-40089D01*
X57828Y-40089D01*
X57863Y-40037D01*
X57878Y-39960D01*
X57878Y-38799D01*
X57878Y-38799D01*
X57878Y-38799D01*
X57863Y-38722D01*
X57819Y-38656D01*
X57819Y-38656D01*
X57622Y-38459D01*
X57557Y-38416D01*
X57502Y-38405D01*
X57482Y-38384D01*
X57426Y-38361D01*
X57365Y-38361D01*
X56774Y-38361D01*
X56718Y-38384D01*
X56676Y-38427D01*
X56652Y-38483D01*
X56652Y-38543D01*
X56652Y-38715D01*
X56053Y-38715D01*
X56053Y-38173D01*
X56702Y-38173D01*
X56718Y-38190D01*
X56774Y-38213D01*
X56835Y-38213D01*
X57425Y-38213D01*
X57481Y-38190D01*
X57524Y-38147D01*
X57548Y-38091D01*
X57548Y-38030D01*
X57548Y-37853D01*
X57532Y-37814D01*
X57548Y-37776D01*
X57548Y-37715D01*
X57548Y-37538D01*
X57532Y-37499D01*
X57548Y-37461D01*
X57548Y-37400D01*
X57548Y-37223D01*
X57532Y-37184D01*
X57548Y-37146D01*
X57548Y-37085D01*
X57548Y-36908D01*
X57532Y-36869D01*
X57548Y-36831D01*
X57548Y-36770D01*
X57548Y-36765D01*
X57600Y-36800D01*
X57677Y-36815D01*
X58838Y-36815D01*
X58915Y-36800D01*
X58981Y-36756D01*
X59177Y-36559D01*
X59177Y-36559D01*
X59177Y-36559D01*
X59221Y-36494D01*
X59232Y-36439D01*
X59232Y-36439D01*
X59253Y-36419D01*
X59276Y-36363D01*
X59276Y-36302D01*
X59276Y-35711D01*
X59253Y-35655D01*
X59210Y-35613D01*
X59154Y-35589D01*
X59093Y-35589D01*
X58916Y-35589D01*
X58877Y-35605D01*
X58839Y-35589D01*
X58778Y-35589D01*
X58624Y-35589D01*
X58732Y-35517D01*
X58818Y-35388D01*
X58848Y-35236D01*
X58848Y-33681D01*
X58818Y-33529D01*
X58802Y-33505D01*
X58802Y-33251D01*
X58779Y-33195D01*
X58736Y-33152D01*
X58680Y-33129D01*
X58620Y-33129D01*
X58220Y-33129D01*
X58164Y-33152D01*
X58121Y-33195D01*
X58098Y-33251D01*
X58098Y-33312D01*
X58098Y-33505D01*
X58082Y-33529D01*
X58051Y-33681D01*
X58051Y-34837D01*
X56053Y-34837D01*
X56053Y-29577D01*
X64516Y-29577D01*
X64516Y-38877D01*
X64424Y-38784D01*
X64424Y-30762D01*
X64424Y-29670D01*
X63331Y-29670D01*
X63331Y-30762D01*
X64424Y-30762D01*
X64424Y-38784D01*
X64414Y-38774D01*
X64348Y-38731D01*
X64271Y-38715D01*
X62048Y-38715D01*
X62048Y-38660D01*
X62048Y-38483D01*
X62032Y-38444D01*
X62048Y-38406D01*
X62048Y-38345D01*
X62048Y-38168D01*
X62024Y-38112D01*
X61982Y-38069D01*
X61926Y-38046D01*
X61865Y-38046D01*
X61274Y-38046D01*
X61267Y-38049D01*
X61225Y-38007D01*
X61225Y-37877D01*
X61274Y-37898D01*
X61335Y-37898D01*
X61925Y-37898D01*
X61981Y-37875D01*
X62024Y-37832D01*
X62048Y-37776D01*
X62048Y-37715D01*
X62048Y-37538D01*
X62032Y-37499D01*
X62048Y-37461D01*
X62048Y-37400D01*
X62048Y-37223D01*
X62032Y-37184D01*
X62048Y-37146D01*
X62048Y-37085D01*
X62048Y-36908D01*
X62032Y-36869D01*
X62048Y-36831D01*
X62048Y-36770D01*
X62048Y-36593D01*
X62024Y-36537D01*
X61982Y-36494D01*
X61965Y-36488D01*
X62014Y-36467D01*
X62057Y-36425D01*
X62081Y-36369D01*
X62081Y-36323D01*
X62093Y-36336D01*
X62229Y-36392D01*
X62376Y-36392D01*
X62511Y-36336D01*
X62615Y-36232D01*
X62671Y-36097D01*
X62672Y-35950D01*
X62616Y-35814D01*
X62512Y-35711D01*
X62376Y-35654D01*
X62230Y-35654D01*
X62094Y-35710D01*
X62081Y-35724D01*
X62081Y-35678D01*
X62063Y-35634D01*
X62696Y-35634D01*
X62849Y-35604D01*
X62978Y-35517D01*
X63006Y-35476D01*
X63078Y-35548D01*
X63213Y-35605D01*
X63360Y-35605D01*
X63496Y-35549D01*
X63599Y-35445D01*
X63656Y-35309D01*
X63656Y-35163D01*
X63600Y-35027D01*
X63538Y-34965D01*
X63538Y-33444D01*
X63519Y-33348D01*
X63464Y-33267D01*
X63383Y-33213D01*
X63287Y-33194D01*
X63164Y-33194D01*
X63164Y-32784D01*
X63141Y-32728D01*
X63098Y-32685D01*
X63042Y-32662D01*
X62981Y-32662D01*
X62351Y-32662D01*
X62295Y-32685D01*
X62252Y-32728D01*
X62229Y-32784D01*
X62229Y-32845D01*
X62229Y-34104D01*
X62252Y-34160D01*
X62295Y-34203D01*
X62298Y-34205D01*
X62298Y-34837D01*
X60648Y-34837D01*
X60648Y-33681D01*
X60618Y-33529D01*
X60602Y-33505D01*
X60602Y-33251D01*
X60579Y-33195D01*
X60536Y-33152D01*
X60480Y-33129D01*
X60420Y-33129D01*
X60020Y-33129D01*
X59964Y-33152D01*
X59921Y-33195D01*
X59898Y-33251D01*
X59898Y-33312D01*
X59898Y-33505D01*
X59882Y-33529D01*
X59851Y-33681D01*
X59851Y-35236D01*
X59882Y-35388D01*
X59968Y-35517D01*
X60076Y-35589D01*
X60038Y-35589D01*
X59861Y-35589D01*
X59822Y-35605D01*
X59784Y-35589D01*
X59723Y-35589D01*
X59546Y-35589D01*
X59490Y-35612D01*
X59447Y-35655D01*
X59424Y-35711D01*
X59424Y-35772D01*
X59424Y-36362D01*
X59447Y-36418D01*
X59490Y-36461D01*
X59546Y-36485D01*
X59606Y-36485D01*
X59784Y-36485D01*
X59822Y-36469D01*
X59861Y-36485D01*
X59921Y-36485D01*
X60099Y-36485D01*
X60137Y-36469D01*
X60176Y-36485D01*
X60236Y-36485D01*
X60414Y-36485D01*
X60452Y-36469D01*
X60491Y-36485D01*
X60551Y-36485D01*
X60729Y-36485D01*
X60767Y-36469D01*
X60806Y-36485D01*
X60866Y-36485D01*
X60872Y-36485D01*
X60837Y-36537D01*
X60822Y-36614D01*
X60822Y-38090D01*
X60837Y-38167D01*
X60881Y-38233D01*
X61077Y-38429D01*
X61077Y-38429D01*
X61143Y-38473D01*
X61155Y-38476D01*
X61152Y-38483D01*
X61152Y-38543D01*
X61152Y-38721D01*
X61168Y-38759D01*
X61152Y-38798D01*
X61152Y-38858D01*
X61152Y-39036D01*
X61168Y-39074D01*
X61152Y-39113D01*
X61152Y-39173D01*
X61152Y-39214D01*
X60306Y-38368D01*
X60309Y-38361D01*
X60309Y-38214D01*
X60253Y-38078D01*
X60150Y-37974D01*
X60014Y-37918D01*
X59867Y-37918D01*
X59732Y-37974D01*
X59628Y-38078D01*
X59572Y-38213D01*
X59571Y-38360D01*
X59628Y-38496D01*
X59714Y-38582D01*
X59628Y-38668D01*
X59572Y-38804D01*
X59571Y-38951D01*
X59628Y-39086D01*
X59640Y-39099D01*
X59572Y-39099D01*
X59436Y-39155D01*
X59333Y-39259D01*
X59276Y-39394D01*
X59276Y-39541D01*
X59332Y-39677D01*
X59436Y-39781D01*
X59463Y-39792D01*
X59463Y-40089D01*
X59408Y-40089D01*
X59231Y-40089D01*
X59175Y-40112D01*
X59132Y-40155D01*
X59109Y-40211D01*
X59109Y-40272D01*
X59109Y-40862D01*
X59132Y-40918D01*
X59175Y-40961D01*
X59195Y-40969D01*
X59207Y-40988D01*
X59404Y-41185D01*
X59404Y-41185D01*
X59470Y-41229D01*
X59547Y-41244D01*
X59547Y-41244D01*
X59547Y-41244D01*
X61220Y-41244D01*
X61297Y-41229D01*
X61363Y-41185D01*
X61530Y-41018D01*
X61958Y-41018D01*
X62014Y-40995D01*
X62057Y-40952D01*
X62081Y-40896D01*
X62081Y-40850D01*
X62093Y-40863D01*
X62229Y-40920D01*
X62376Y-40920D01*
X62511Y-40864D01*
X62615Y-40760D01*
X62671Y-40624D01*
X62672Y-40478D01*
X62616Y-40342D01*
X62512Y-40238D01*
X62376Y-40182D01*
X62230Y-40182D01*
X62094Y-40238D01*
X62081Y-40251D01*
X62081Y-40206D01*
X62057Y-40150D01*
X62015Y-40107D01*
X61966Y-40086D01*
X61981Y-40080D01*
X62024Y-40037D01*
X62048Y-39981D01*
X62048Y-39920D01*
X62048Y-39743D01*
X62032Y-39704D01*
X62048Y-39666D01*
X62048Y-39605D01*
X62048Y-39433D01*
X63991Y-39433D01*
X64070Y-39512D01*
X64070Y-43715D01*
X63991Y-43794D01*
X58858Y-43794D01*
X58781Y-43809D01*
X58715Y-43853D01*
X58715Y-43853D01*
X58357Y-44211D01*
X58278Y-44178D01*
X58076Y-44178D01*
X57890Y-44255D01*
X57747Y-44397D01*
X57677Y-44568D01*
X57606Y-44398D01*
X57464Y-44255D01*
X57278Y-44178D01*
X57076Y-44178D01*
X56890Y-44255D01*
X56747Y-44397D01*
X56670Y-44583D01*
X56670Y-44785D01*
X56747Y-44971D01*
X56889Y-45114D01*
X57075Y-45191D01*
X57277Y-45191D01*
X57463Y-45114D01*
X57606Y-44972D01*
X57677Y-44801D01*
X57747Y-44971D01*
X57889Y-45114D01*
X58075Y-45191D01*
X58277Y-45191D01*
X58463Y-45114D01*
X58606Y-44972D01*
X58683Y-44786D01*
X58683Y-44584D01*
X58646Y-44493D01*
X58941Y-44197D01*
X60376Y-44197D01*
X60236Y-44255D01*
X60094Y-44397D01*
X60017Y-44583D01*
X60016Y-44785D01*
X60093Y-44971D01*
X60236Y-45114D01*
X60422Y-45191D01*
X60623Y-45191D01*
X60810Y-45114D01*
X60952Y-44972D01*
X61023Y-44801D01*
X61093Y-44971D01*
X61236Y-45114D01*
X61422Y-45191D01*
X61623Y-45191D01*
X61810Y-45114D01*
X61952Y-44972D01*
X62030Y-44786D01*
X62030Y-44584D01*
X61992Y-44493D01*
X62091Y-44394D01*
X64271Y-44394D01*
X64348Y-44379D01*
X64414Y-44335D01*
X64516Y-44232D01*
X64516Y-46997D01*
X64516Y-46997D01*
G37*
G54D29*
X64516Y-46997D02*
X64424Y-46997D01*
X64424Y-46904D01*
X64424Y-45812D01*
X63331Y-45812D01*
X63331Y-46904D01*
X64424Y-46904D01*
X64424Y-46997D01*
X56053Y-46997D01*
X56053Y-39118D01*
X56652Y-39118D01*
X56652Y-39173D01*
X56652Y-39351D01*
X56668Y-39389D01*
X56652Y-39428D01*
X56652Y-39488D01*
X56652Y-39666D01*
X56668Y-39704D01*
X56652Y-39743D01*
X56652Y-39803D01*
X56652Y-39981D01*
X56675Y-40037D01*
X56718Y-40080D01*
X56734Y-40086D01*
X56685Y-40106D01*
X56642Y-40149D01*
X56619Y-40205D01*
X56619Y-40266D01*
X56619Y-40896D01*
X56642Y-40952D01*
X56685Y-40995D01*
X56741Y-41018D01*
X56802Y-41018D01*
X57353Y-41018D01*
X57409Y-40995D01*
X57452Y-40952D01*
X57475Y-40896D01*
X57475Y-40835D01*
X57475Y-40447D01*
X57534Y-40388D01*
X57534Y-40862D01*
X57557Y-40918D01*
X57600Y-40961D01*
X57656Y-40985D01*
X57716Y-40985D01*
X57894Y-40985D01*
X57932Y-40969D01*
X57971Y-40985D01*
X58031Y-40985D01*
X58209Y-40985D01*
X58247Y-40969D01*
X58286Y-40985D01*
X58346Y-40985D01*
X58524Y-40985D01*
X58562Y-40969D01*
X58601Y-40985D01*
X58661Y-40985D01*
X58839Y-40985D01*
X58895Y-40961D01*
X58938Y-40919D01*
X58961Y-40863D01*
X58961Y-40802D01*
X58961Y-40211D01*
X58938Y-40155D01*
X58895Y-40113D01*
X58839Y-40089D01*
X58778Y-40089D01*
X58601Y-40089D01*
X58562Y-40105D01*
X58524Y-40089D01*
X58463Y-40089D01*
X58286Y-40089D01*
X58247Y-40105D01*
X58209Y-40089D01*
X58148Y-40089D01*
X57971Y-40089D01*
X57932Y-40105D01*
X57894Y-40089D01*
X57833Y-40089D01*
X57828Y-40089D01*
X57863Y-40037D01*
X57878Y-39960D01*
X57878Y-38799D01*
X57878Y-38799D01*
X57878Y-38799D01*
X57863Y-38722D01*
X57819Y-38656D01*
X57819Y-38656D01*
X57622Y-38459D01*
X57557Y-38416D01*
X57502Y-38405D01*
X57482Y-38384D01*
X57426Y-38361D01*
X57365Y-38361D01*
X56774Y-38361D01*
X56718Y-38384D01*
X56676Y-38427D01*
X56652Y-38483D01*
X56652Y-38543D01*
X56652Y-38715D01*
X56053Y-38715D01*
X56053Y-38173D01*
X56702Y-38173D01*
X56718Y-38190D01*
X56774Y-38213D01*
X56835Y-38213D01*
X57425Y-38213D01*
X57481Y-38190D01*
X57524Y-38147D01*
X57548Y-38091D01*
X57548Y-38030D01*
X57548Y-37853D01*
X57532Y-37814D01*
X57548Y-37776D01*
X57548Y-37715D01*
X57548Y-37538D01*
X57532Y-37499D01*
X57548Y-37461D01*
X57548Y-37400D01*
X57548Y-37223D01*
X57532Y-37184D01*
X57548Y-37146D01*
X57548Y-37085D01*
X57548Y-36908D01*
X57532Y-36869D01*
X57548Y-36831D01*
X57548Y-36770D01*
X57548Y-36765D01*
X57600Y-36800D01*
X57677Y-36815D01*
X58838Y-36815D01*
X58915Y-36800D01*
X58981Y-36756D01*
X59177Y-36559D01*
X59177Y-36559D01*
X59177Y-36559D01*
X59221Y-36494D01*
X59232Y-36439D01*
X59232Y-36439D01*
X59253Y-36419D01*
X59276Y-36363D01*
X59276Y-36302D01*
X59276Y-35711D01*
X59253Y-35655D01*
X59210Y-35613D01*
X59154Y-35589D01*
X59093Y-35589D01*
X58916Y-35589D01*
X58877Y-35605D01*
X58839Y-35589D01*
X58778Y-35589D01*
X58624Y-35589D01*
X58732Y-35517D01*
X58818Y-35388D01*
X58848Y-35236D01*
X58848Y-33681D01*
X58818Y-33529D01*
X58802Y-33505D01*
X58802Y-33251D01*
X58779Y-33195D01*
X58736Y-33152D01*
X58680Y-33129D01*
X58620Y-33129D01*
X58220Y-33129D01*
X58164Y-33152D01*
X58121Y-33195D01*
X58098Y-33251D01*
X58098Y-33312D01*
X58098Y-33505D01*
X58082Y-33529D01*
X58051Y-33681D01*
X58051Y-34837D01*
X56053Y-34837D01*
X56053Y-29577D01*
X64516Y-29577D01*
X64516Y-38877D01*
X64424Y-38784D01*
X64424Y-30762D01*
X64424Y-29670D01*
X63331Y-29670D01*
X63331Y-30762D01*
X64424Y-30762D01*
X64424Y-38784D01*
X64414Y-38774D01*
X64348Y-38731D01*
X64271Y-38715D01*
X62048Y-38715D01*
X62048Y-38660D01*
X62048Y-38483D01*
X62032Y-38444D01*
X62048Y-38406D01*
X62048Y-38345D01*
X62048Y-38168D01*
X62024Y-38112D01*
X61982Y-38069D01*
X61926Y-38046D01*
X61865Y-38046D01*
X61274Y-38046D01*
X61267Y-38049D01*
X61225Y-38007D01*
X61225Y-37877D01*
X61274Y-37898D01*
X61335Y-37898D01*
X61925Y-37898D01*
X61981Y-37875D01*
X62024Y-37832D01*
X62048Y-37776D01*
X62048Y-37715D01*
X62048Y-37538D01*
X62032Y-37499D01*
X62048Y-37461D01*
X62048Y-37400D01*
X62048Y-37223D01*
X62032Y-37184D01*
X62048Y-37146D01*
X62048Y-37085D01*
X62048Y-36908D01*
X62032Y-36869D01*
X62048Y-36831D01*
X62048Y-36770D01*
X62048Y-36593D01*
X62024Y-36537D01*
X61982Y-36494D01*
X61965Y-36488D01*
X62014Y-36467D01*
X62057Y-36425D01*
X62081Y-36369D01*
X62081Y-36323D01*
X62093Y-36336D01*
X62229Y-36392D01*
X62376Y-36392D01*
X62511Y-36336D01*
X62615Y-36232D01*
X62671Y-36097D01*
X62672Y-35950D01*
X62616Y-35814D01*
X62512Y-35711D01*
X62376Y-35654D01*
X62230Y-35654D01*
X62094Y-35710D01*
X62081Y-35724D01*
X62081Y-35678D01*
X62063Y-35634D01*
X62696Y-35634D01*
X62849Y-35604D01*
X62978Y-35517D01*
X63006Y-35476D01*
X63078Y-35548D01*
X63213Y-35605D01*
X63360Y-35605D01*
X63496Y-35549D01*
X63599Y-35445D01*
X63656Y-35309D01*
X63656Y-35163D01*
X63600Y-35027D01*
X63538Y-34965D01*
X63538Y-33444D01*
X63519Y-33348D01*
X63464Y-33267D01*
X63383Y-33213D01*
X63287Y-33194D01*
X63164Y-33194D01*
X63164Y-32784D01*
X63141Y-32728D01*
X63098Y-32685D01*
X63042Y-32662D01*
X62981Y-32662D01*
X62351Y-32662D01*
X62295Y-32685D01*
X62252Y-32728D01*
X62229Y-32784D01*
X62229Y-32845D01*
X62229Y-34104D01*
X62252Y-34160D01*
X62295Y-34203D01*
X62298Y-34205D01*
X62298Y-34837D01*
X60648Y-34837D01*
X60648Y-33681D01*
X60618Y-33529D01*
X60602Y-33505D01*
X60602Y-33251D01*
X60579Y-33195D01*
X60536Y-33152D01*
X60480Y-33129D01*
X60420Y-33129D01*
X60020Y-33129D01*
X59964Y-33152D01*
X59921Y-33195D01*
X59898Y-33251D01*
X59898Y-33312D01*
X59898Y-33505D01*
X59882Y-33529D01*
X59851Y-33681D01*
X59851Y-35236D01*
X59882Y-35388D01*
X59968Y-35517D01*
X60076Y-35589D01*
X60038Y-35589D01*
X59861Y-35589D01*
X59822Y-35605D01*
X59784Y-35589D01*
X59723Y-35589D01*
X59546Y-35589D01*
X59490Y-35612D01*
X59447Y-35655D01*
X59424Y-35711D01*
X59424Y-35772D01*
X59424Y-36362D01*
X59447Y-36418D01*
X59490Y-36461D01*
X59546Y-36485D01*
X59606Y-36485D01*
X59784Y-36485D01*
X59822Y-36469D01*
X59861Y-36485D01*
X59921Y-36485D01*
X60099Y-36485D01*
X60137Y-36469D01*
X60176Y-36485D01*
X60236Y-36485D01*
X60414Y-36485D01*
X60452Y-36469D01*
X60491Y-36485D01*
X60551Y-36485D01*
X60729Y-36485D01*
X60767Y-36469D01*
X60806Y-36485D01*
X60866Y-36485D01*
X60872Y-36485D01*
X60837Y-36537D01*
X60822Y-36614D01*
X60822Y-38090D01*
X60837Y-38167D01*
X60881Y-38233D01*
X61077Y-38429D01*
X61077Y-38429D01*
X61143Y-38473D01*
X61155Y-38476D01*
X61152Y-38483D01*
X61152Y-38543D01*
X61152Y-38721D01*
X61168Y-38759D01*
X61152Y-38798D01*
X61152Y-38858D01*
X61152Y-39036D01*
X61168Y-39074D01*
X61152Y-39113D01*
X61152Y-39173D01*
X61152Y-39214D01*
X60306Y-38368D01*
X60309Y-38361D01*
X60309Y-38214D01*
X60253Y-38078D01*
X60150Y-37974D01*
X60014Y-37918D01*
X59867Y-37918D01*
X59732Y-37974D01*
X59628Y-38078D01*
X59572Y-38213D01*
X59571Y-38360D01*
X59628Y-38496D01*
X59714Y-38582D01*
X59628Y-38668D01*
X59572Y-38804D01*
X59571Y-38951D01*
X59628Y-39086D01*
X59640Y-39099D01*
X59572Y-39099D01*
X59436Y-39155D01*
X59333Y-39259D01*
X59276Y-39394D01*
X59276Y-39541D01*
X59332Y-39677D01*
X59436Y-39781D01*
X59463Y-39792D01*
X59463Y-40089D01*
X59408Y-40089D01*
X59231Y-40089D01*
X59175Y-40112D01*
X59132Y-40155D01*
X59109Y-40211D01*
X59109Y-40272D01*
X59109Y-40862D01*
X59132Y-40918D01*
X59175Y-40961D01*
X59195Y-40969D01*
X59207Y-40988D01*
X59404Y-41185D01*
X59404Y-41185D01*
X59470Y-41229D01*
X59547Y-41244D01*
X59547Y-41244D01*
X59547Y-41244D01*
X61220Y-41244D01*
X61297Y-41229D01*
X61363Y-41185D01*
X61530Y-41018D01*
X61958Y-41018D01*
X62014Y-40995D01*
X62057Y-40952D01*
X62081Y-40896D01*
X62081Y-40850D01*
X62093Y-40863D01*
X62229Y-40920D01*
X62376Y-40920D01*
X62511Y-40864D01*
X62615Y-40760D01*
X62671Y-40624D01*
X62672Y-40478D01*
X62616Y-40342D01*
X62512Y-40238D01*
X62376Y-40182D01*
X62230Y-40182D01*
X62094Y-40238D01*
X62081Y-40251D01*
X62081Y-40206D01*
X62057Y-40150D01*
X62015Y-40107D01*
X61966Y-40086D01*
X61981Y-40080D01*
X62024Y-40037D01*
X62048Y-39981D01*
X62048Y-39920D01*
X62048Y-39743D01*
X62032Y-39704D01*
X62048Y-39666D01*
X62048Y-39605D01*
X62048Y-39433D01*
X63991Y-39433D01*
X64070Y-39512D01*
X64070Y-43715D01*
X63991Y-43794D01*
X58858Y-43794D01*
X58781Y-43809D01*
X58715Y-43853D01*
X58715Y-43853D01*
X58357Y-44211D01*
X58278Y-44178D01*
X58076Y-44178D01*
X57890Y-44255D01*
X57747Y-44397D01*
X57677Y-44568D01*
X57606Y-44398D01*
X57464Y-44255D01*
X57278Y-44178D01*
X57076Y-44178D01*
X56890Y-44255D01*
X56747Y-44397D01*
X56670Y-44583D01*
X56670Y-44785D01*
X56747Y-44971D01*
X56889Y-45114D01*
X57075Y-45191D01*
X57277Y-45191D01*
X57463Y-45114D01*
X57606Y-44972D01*
X57677Y-44801D01*
X57747Y-44971D01*
X57889Y-45114D01*
X58075Y-45191D01*
X58277Y-45191D01*
X58463Y-45114D01*
X58606Y-44972D01*
X58683Y-44786D01*
X58683Y-44584D01*
X58646Y-44493D01*
X58941Y-44197D01*
X60376Y-44197D01*
X60236Y-44255D01*
X60094Y-44397D01*
X60017Y-44583D01*
X60016Y-44785D01*
X60093Y-44971D01*
X60236Y-45114D01*
X60422Y-45191D01*
X60623Y-45191D01*
X60810Y-45114D01*
X60952Y-44972D01*
X61023Y-44801D01*
X61093Y-44971D01*
X61236Y-45114D01*
X61422Y-45191D01*
X61623Y-45191D01*
X61810Y-45114D01*
X61952Y-44972D01*
X62030Y-44786D01*
X62030Y-44584D01*
X61992Y-44493D01*
X62091Y-44394D01*
X64271Y-44394D01*
X64348Y-44379D01*
X64414Y-44335D01*
X64516Y-44232D01*
X64516Y-46997D01*
G54D10*
G36*
X55851Y-46997D02*
X42534Y-46997D01*
X42534Y-41612D01*
X42534Y-40234D01*
X42534Y-38856D01*
X42442Y-38634D01*
X42272Y-38463D01*
X42050Y-38371D01*
X41809Y-38371D01*
X41586Y-38463D01*
X41416Y-38633D01*
X41324Y-38855D01*
X41323Y-39096D01*
X41415Y-39318D01*
X41585Y-39489D01*
X41808Y-39581D01*
X42048Y-39581D01*
X42271Y-39489D01*
X42441Y-39319D01*
X42534Y-39097D01*
X42534Y-38856D01*
X42534Y-40234D01*
X42442Y-40012D01*
X42272Y-39841D01*
X42050Y-39749D01*
X41809Y-39749D01*
X41586Y-39841D01*
X41416Y-40011D01*
X41324Y-40233D01*
X41323Y-40474D01*
X41415Y-40696D01*
X41585Y-40867D01*
X41808Y-40959D01*
X42048Y-40959D01*
X42271Y-40867D01*
X42441Y-40697D01*
X42534Y-40475D01*
X42534Y-40234D01*
X42534Y-41612D01*
X42442Y-41389D01*
X42272Y-41219D01*
X42050Y-41127D01*
X41809Y-41127D01*
X41586Y-41218D01*
X41416Y-41389D01*
X41324Y-41611D01*
X41323Y-41852D01*
X41415Y-42074D01*
X41585Y-42244D01*
X41808Y-42337D01*
X42048Y-42337D01*
X42271Y-42245D01*
X42441Y-42075D01*
X42534Y-41853D01*
X42534Y-41612D01*
X42534Y-46997D01*
X39223Y-46997D01*
X39223Y-29577D01*
X55851Y-29577D01*
X55851Y-32780D01*
X55835Y-32780D01*
X54930Y-32780D01*
X54874Y-32803D01*
X54831Y-32846D01*
X54808Y-32902D01*
X54808Y-32963D01*
X54808Y-33790D01*
X54831Y-33846D01*
X54874Y-33888D01*
X54930Y-33912D01*
X54990Y-33912D01*
X55014Y-33912D01*
X55014Y-35236D01*
X55045Y-35388D01*
X55131Y-35517D01*
X55260Y-35604D01*
X55344Y-35620D01*
X55342Y-35622D01*
X55319Y-35678D01*
X55319Y-35738D01*
X55319Y-35822D01*
X53740Y-35822D01*
X53740Y-35822D01*
X53663Y-35837D01*
X53597Y-35881D01*
X53597Y-35881D01*
X53518Y-35960D01*
X53518Y-35950D01*
X53462Y-35814D01*
X53358Y-35711D01*
X53223Y-35654D01*
X53076Y-35654D01*
X52940Y-35710D01*
X52837Y-35814D01*
X52780Y-35949D01*
X52780Y-36096D01*
X52836Y-36232D01*
X52940Y-36336D01*
X52948Y-36339D01*
X52948Y-39757D01*
X52869Y-39835D01*
X52713Y-39835D01*
X52773Y-39776D01*
X52829Y-39640D01*
X52829Y-39493D01*
X52773Y-39358D01*
X52669Y-39254D01*
X52657Y-39249D01*
X52646Y-39194D01*
X52603Y-39129D01*
X52603Y-39129D01*
X52406Y-38932D01*
X52340Y-38888D01*
X52263Y-38873D01*
X52116Y-38873D01*
X52107Y-38851D01*
X52064Y-38808D01*
X52014Y-38787D01*
X52064Y-38766D01*
X52107Y-38723D01*
X52130Y-38667D01*
X52130Y-38607D01*
X52130Y-38407D01*
X52107Y-38351D01*
X52064Y-38308D01*
X52014Y-38287D01*
X52064Y-38266D01*
X52107Y-38223D01*
X52130Y-38167D01*
X52130Y-38107D01*
X52130Y-37907D01*
X52107Y-37851D01*
X52064Y-37808D01*
X52014Y-37787D01*
X52064Y-37766D01*
X52107Y-37723D01*
X52130Y-37667D01*
X52130Y-37607D01*
X52130Y-37407D01*
X52107Y-37351D01*
X52064Y-37308D01*
X52014Y-37287D01*
X52064Y-37266D01*
X52107Y-37223D01*
X52130Y-37167D01*
X52130Y-37107D01*
X52130Y-36907D01*
X52107Y-36851D01*
X52064Y-36808D01*
X52014Y-36787D01*
X52064Y-36766D01*
X52107Y-36723D01*
X52130Y-36667D01*
X52130Y-36607D01*
X52130Y-36407D01*
X52107Y-36351D01*
X52064Y-36308D01*
X52008Y-36285D01*
X51948Y-36285D01*
X51818Y-36285D01*
X51810Y-36241D01*
X51766Y-36176D01*
X51766Y-36176D01*
X51569Y-35979D01*
X51504Y-35935D01*
X51427Y-35920D01*
X48803Y-35920D01*
X48725Y-35841D01*
X48725Y-32972D01*
X48725Y-32972D01*
X48725Y-32972D01*
X48709Y-32895D01*
X48675Y-32844D01*
X48675Y-32844D01*
X48675Y-32820D01*
X48656Y-32820D01*
X48469Y-32633D01*
X48403Y-32589D01*
X48326Y-32574D01*
X46007Y-32574D01*
X46007Y-32574D01*
X45930Y-32589D01*
X45865Y-32633D01*
X45865Y-32633D01*
X45678Y-32820D01*
X44158Y-32820D01*
X44086Y-32747D01*
X43900Y-32670D01*
X43698Y-32670D01*
X43512Y-32747D01*
X43369Y-32889D01*
X43292Y-33075D01*
X43292Y-33277D01*
X43317Y-33337D01*
X42564Y-34090D01*
X42564Y-37948D01*
X42475Y-37859D01*
X42534Y-37719D01*
X42534Y-37478D01*
X42534Y-34722D01*
X42442Y-34500D01*
X42272Y-34329D01*
X42050Y-34237D01*
X41809Y-34237D01*
X41586Y-34329D01*
X41416Y-34499D01*
X41324Y-34721D01*
X41323Y-34962D01*
X41415Y-35184D01*
X41585Y-35355D01*
X41808Y-35447D01*
X42048Y-35447D01*
X42271Y-35355D01*
X42441Y-35185D01*
X42534Y-34963D01*
X42534Y-34722D01*
X42534Y-37478D01*
X42442Y-37256D01*
X42272Y-37085D01*
X42050Y-36993D01*
X41809Y-36993D01*
X41586Y-37085D01*
X41416Y-37255D01*
X41324Y-37477D01*
X41323Y-37718D01*
X41415Y-37940D01*
X41585Y-38111D01*
X41808Y-38203D01*
X42048Y-38203D01*
X42190Y-38145D01*
X42475Y-38429D01*
X42475Y-38429D01*
X42540Y-38473D01*
X42564Y-38478D01*
X42564Y-42582D01*
X43834Y-43853D01*
X46674Y-43853D01*
X46762Y-43941D01*
X46762Y-43941D01*
X46828Y-43985D01*
X46905Y-44000D01*
X46905Y-44000D01*
X46905Y-44000D01*
X48326Y-44000D01*
X48403Y-43985D01*
X48469Y-43941D01*
X48557Y-43853D01*
X48675Y-43853D01*
X48675Y-43730D01*
X48675Y-43730D01*
X48709Y-43679D01*
X48725Y-43602D01*
X48725Y-43602D01*
X48725Y-43602D01*
X48725Y-40929D01*
X48803Y-40851D01*
X52238Y-40851D01*
X52251Y-40863D01*
X52386Y-40920D01*
X52533Y-40920D01*
X52669Y-40864D01*
X52773Y-40760D01*
X52829Y-40624D01*
X52829Y-40478D01*
X52773Y-40342D01*
X52670Y-40238D01*
X52952Y-40238D01*
X53029Y-40223D01*
X53095Y-40179D01*
X53292Y-39983D01*
X53292Y-39983D01*
X53292Y-39983D01*
X53335Y-39917D01*
X53344Y-39875D01*
X53357Y-39939D01*
X53400Y-40004D01*
X53597Y-40201D01*
X53597Y-40201D01*
X53663Y-40245D01*
X53740Y-40260D01*
X53740Y-40260D01*
X53740Y-40260D01*
X53834Y-40260D01*
X53840Y-40266D01*
X53896Y-40289D01*
X53957Y-40289D01*
X54666Y-40289D01*
X54722Y-40266D01*
X54764Y-40223D01*
X54788Y-40167D01*
X54788Y-40107D01*
X54788Y-39907D01*
X54765Y-39851D01*
X54722Y-39808D01*
X54671Y-39787D01*
X54722Y-39766D01*
X54764Y-39723D01*
X54788Y-39667D01*
X54788Y-39607D01*
X54788Y-39407D01*
X54765Y-39351D01*
X54722Y-39308D01*
X54671Y-39287D01*
X54698Y-39276D01*
X54960Y-39276D01*
X55037Y-39261D01*
X55103Y-39217D01*
X55201Y-39118D01*
X55851Y-39118D01*
X55851Y-40083D01*
X55441Y-40083D01*
X55385Y-40106D01*
X55342Y-40149D01*
X55319Y-40205D01*
X55319Y-40266D01*
X55319Y-40896D01*
X55342Y-40952D01*
X55385Y-40995D01*
X55441Y-41018D01*
X55502Y-41018D01*
X55851Y-41018D01*
X55851Y-46997D01*
X55851Y-46997D01*
G37*
G54D29*
X55851Y-46997D02*
X42534Y-46997D01*
X42534Y-41612D01*
X42534Y-40234D01*
X42534Y-38856D01*
X42442Y-38634D01*
X42272Y-38463D01*
X42050Y-38371D01*
X41809Y-38371D01*
X41586Y-38463D01*
X41416Y-38633D01*
X41324Y-38855D01*
X41323Y-39096D01*
X41415Y-39318D01*
X41585Y-39489D01*
X41808Y-39581D01*
X42048Y-39581D01*
X42271Y-39489D01*
X42441Y-39319D01*
X42534Y-39097D01*
X42534Y-38856D01*
X42534Y-40234D01*
X42442Y-40012D01*
X42272Y-39841D01*
X42050Y-39749D01*
X41809Y-39749D01*
X41586Y-39841D01*
X41416Y-40011D01*
X41324Y-40233D01*
X41323Y-40474D01*
X41415Y-40696D01*
X41585Y-40867D01*
X41808Y-40959D01*
X42048Y-40959D01*
X42271Y-40867D01*
X42441Y-40697D01*
X42534Y-40475D01*
X42534Y-40234D01*
X42534Y-41612D01*
X42442Y-41389D01*
X42272Y-41219D01*
X42050Y-41127D01*
X41809Y-41127D01*
X41586Y-41218D01*
X41416Y-41389D01*
X41324Y-41611D01*
X41323Y-41852D01*
X41415Y-42074D01*
X41585Y-42244D01*
X41808Y-42337D01*
X42048Y-42337D01*
X42271Y-42245D01*
X42441Y-42075D01*
X42534Y-41853D01*
X42534Y-41612D01*
X42534Y-46997D01*
X39223Y-46997D01*
X39223Y-29577D01*
X55851Y-29577D01*
X55851Y-32780D01*
X55835Y-32780D01*
X54930Y-32780D01*
X54874Y-32803D01*
X54831Y-32846D01*
X54808Y-32902D01*
X54808Y-32963D01*
X54808Y-33790D01*
X54831Y-33846D01*
X54874Y-33888D01*
X54930Y-33912D01*
X54990Y-33912D01*
X55014Y-33912D01*
X55014Y-35236D01*
X55045Y-35388D01*
X55131Y-35517D01*
X55260Y-35604D01*
X55344Y-35620D01*
X55342Y-35622D01*
X55319Y-35678D01*
X55319Y-35738D01*
X55319Y-35822D01*
X53740Y-35822D01*
X53740Y-35822D01*
X53663Y-35837D01*
X53597Y-35881D01*
X53597Y-35881D01*
X53518Y-35960D01*
X53518Y-35950D01*
X53462Y-35814D01*
X53358Y-35711D01*
X53223Y-35654D01*
X53076Y-35654D01*
X52940Y-35710D01*
X52837Y-35814D01*
X52780Y-35949D01*
X52780Y-36096D01*
X52836Y-36232D01*
X52940Y-36336D01*
X52948Y-36339D01*
X52948Y-39757D01*
X52869Y-39835D01*
X52713Y-39835D01*
X52773Y-39776D01*
X52829Y-39640D01*
X52829Y-39493D01*
X52773Y-39358D01*
X52669Y-39254D01*
X52657Y-39249D01*
X52646Y-39194D01*
X52603Y-39129D01*
X52603Y-39129D01*
X52406Y-38932D01*
X52340Y-38888D01*
X52263Y-38873D01*
X52116Y-38873D01*
X52107Y-38851D01*
X52064Y-38808D01*
X52014Y-38787D01*
X52064Y-38766D01*
X52107Y-38723D01*
X52130Y-38667D01*
X52130Y-38607D01*
X52130Y-38407D01*
X52107Y-38351D01*
X52064Y-38308D01*
X52014Y-38287D01*
X52064Y-38266D01*
X52107Y-38223D01*
X52130Y-38167D01*
X52130Y-38107D01*
X52130Y-37907D01*
X52107Y-37851D01*
X52064Y-37808D01*
X52014Y-37787D01*
X52064Y-37766D01*
X52107Y-37723D01*
X52130Y-37667D01*
X52130Y-37607D01*
X52130Y-37407D01*
X52107Y-37351D01*
X52064Y-37308D01*
X52014Y-37287D01*
X52064Y-37266D01*
X52107Y-37223D01*
X52130Y-37167D01*
X52130Y-37107D01*
X52130Y-36907D01*
X52107Y-36851D01*
X52064Y-36808D01*
X52014Y-36787D01*
X52064Y-36766D01*
X52107Y-36723D01*
X52130Y-36667D01*
X52130Y-36607D01*
X52130Y-36407D01*
X52107Y-36351D01*
X52064Y-36308D01*
X52008Y-36285D01*
X51948Y-36285D01*
X51818Y-36285D01*
X51810Y-36241D01*
X51766Y-36176D01*
X51766Y-36176D01*
X51569Y-35979D01*
X51504Y-35935D01*
X51427Y-35920D01*
X48803Y-35920D01*
X48725Y-35841D01*
X48725Y-32972D01*
X48725Y-32972D01*
X48725Y-32972D01*
X48709Y-32895D01*
X48675Y-32844D01*
X48675Y-32844D01*
X48675Y-32820D01*
X48656Y-32820D01*
X48469Y-32633D01*
X48403Y-32589D01*
X48326Y-32574D01*
X46007Y-32574D01*
X46007Y-32574D01*
X45930Y-32589D01*
X45865Y-32633D01*
X45865Y-32633D01*
X45678Y-32820D01*
X44158Y-32820D01*
X44086Y-32747D01*
X43900Y-32670D01*
X43698Y-32670D01*
X43512Y-32747D01*
X43369Y-32889D01*
X43292Y-33075D01*
X43292Y-33277D01*
X43317Y-33337D01*
X42564Y-34090D01*
X42564Y-37948D01*
X42475Y-37859D01*
X42534Y-37719D01*
X42534Y-37478D01*
X42534Y-34722D01*
X42442Y-34500D01*
X42272Y-34329D01*
X42050Y-34237D01*
X41809Y-34237D01*
X41586Y-34329D01*
X41416Y-34499D01*
X41324Y-34721D01*
X41323Y-34962D01*
X41415Y-35184D01*
X41585Y-35355D01*
X41808Y-35447D01*
X42048Y-35447D01*
X42271Y-35355D01*
X42441Y-35185D01*
X42534Y-34963D01*
X42534Y-34722D01*
X42534Y-37478D01*
X42442Y-37256D01*
X42272Y-37085D01*
X42050Y-36993D01*
X41809Y-36993D01*
X41586Y-37085D01*
X41416Y-37255D01*
X41324Y-37477D01*
X41323Y-37718D01*
X41415Y-37940D01*
X41585Y-38111D01*
X41808Y-38203D01*
X42048Y-38203D01*
X42190Y-38145D01*
X42475Y-38429D01*
X42475Y-38429D01*
X42540Y-38473D01*
X42564Y-38478D01*
X42564Y-42582D01*
X43834Y-43853D01*
X46674Y-43853D01*
X46762Y-43941D01*
X46762Y-43941D01*
X46828Y-43985D01*
X46905Y-44000D01*
X46905Y-44000D01*
X46905Y-44000D01*
X48326Y-44000D01*
X48403Y-43985D01*
X48469Y-43941D01*
X48557Y-43853D01*
X48675Y-43853D01*
X48675Y-43730D01*
X48675Y-43730D01*
X48709Y-43679D01*
X48725Y-43602D01*
X48725Y-43602D01*
X48725Y-43602D01*
X48725Y-40929D01*
X48803Y-40851D01*
X52238Y-40851D01*
X52251Y-40863D01*
X52386Y-40920D01*
X52533Y-40920D01*
X52669Y-40864D01*
X52773Y-40760D01*
X52829Y-40624D01*
X52829Y-40478D01*
X52773Y-40342D01*
X52670Y-40238D01*
X52952Y-40238D01*
X53029Y-40223D01*
X53095Y-40179D01*
X53292Y-39983D01*
X53292Y-39983D01*
X53292Y-39983D01*
X53335Y-39917D01*
X53344Y-39875D01*
X53357Y-39939D01*
X53400Y-40004D01*
X53597Y-40201D01*
X53597Y-40201D01*
X53663Y-40245D01*
X53740Y-40260D01*
X53740Y-40260D01*
X53740Y-40260D01*
X53834Y-40260D01*
X53840Y-40266D01*
X53896Y-40289D01*
X53957Y-40289D01*
X54666Y-40289D01*
X54722Y-40266D01*
X54764Y-40223D01*
X54788Y-40167D01*
X54788Y-40107D01*
X54788Y-39907D01*
X54765Y-39851D01*
X54722Y-39808D01*
X54671Y-39787D01*
X54722Y-39766D01*
X54764Y-39723D01*
X54788Y-39667D01*
X54788Y-39607D01*
X54788Y-39407D01*
X54765Y-39351D01*
X54722Y-39308D01*
X54671Y-39287D01*
X54698Y-39276D01*
X54960Y-39276D01*
X55037Y-39261D01*
X55103Y-39217D01*
X55201Y-39118D01*
X55851Y-39118D01*
X55851Y-40083D01*
X55441Y-40083D01*
X55385Y-40106D01*
X55342Y-40149D01*
X55319Y-40205D01*
X55319Y-40266D01*
X55319Y-40896D01*
X55342Y-40952D01*
X55385Y-40995D01*
X55441Y-41018D01*
X55502Y-41018D01*
X55851Y-41018D01*
X55851Y-46997D01*
M02*
