G04 (created by PCBNEW (2013-07-07 BZR 4022)-stable) date 10/14/2016 2:41:48 PM*
%MOIN*%
G04 Gerber Fmt 3.4, Leading zero omitted, Abs format*
%FSLAX34Y34*%
G01*
G70*
G90*
G04 APERTURE LIST*
%ADD10C,0.00590551*%
%ADD11R,0.0162992X0.0543307*%
%ADD12R,0.0543307X0.0162992*%
%ADD13R,0.0592126X0.0592126*%
%ADD14R,0.13248X0.0736*%
%ADD15R,0.0368X0.0736*%
%ADD16R,0.0651968X0.0184*%
%ADD17R,0.0507087X0.0579528*%
%ADD18R,0.0833071X0.076063*%
%ADD19R,0.05796X0.115906*%
%ADD20R,0.0253543X0.101417*%
%ADD21R,0.217323X0.220945*%
G04 APERTURE END LIST*
G54D10*
G54D11*
X59350Y-36037D03*
X59035Y-36037D03*
X58720Y-36037D03*
X58405Y-36037D03*
X58090Y-36037D03*
X57775Y-36037D03*
X59665Y-36037D03*
X59980Y-36037D03*
X60295Y-36037D03*
X60610Y-36037D03*
X60925Y-36037D03*
X59350Y-40537D03*
X59035Y-40537D03*
X58720Y-40537D03*
X58405Y-40537D03*
X58090Y-40537D03*
X57775Y-40537D03*
X59665Y-40537D03*
X59980Y-40537D03*
X60295Y-40537D03*
X60610Y-40537D03*
X60925Y-40537D03*
G54D12*
X57100Y-38287D03*
X61600Y-38287D03*
X57100Y-38602D03*
X61600Y-38602D03*
X61600Y-38917D03*
X57100Y-38917D03*
X57100Y-39232D03*
X61600Y-39232D03*
X61600Y-39547D03*
X57100Y-39547D03*
X57100Y-39862D03*
X61600Y-39862D03*
X61600Y-37972D03*
X57100Y-37972D03*
X57100Y-37657D03*
X61600Y-37657D03*
X61600Y-37342D03*
X57100Y-37342D03*
X57100Y-37027D03*
X61600Y-37027D03*
X61600Y-36712D03*
X57100Y-36712D03*
G54D13*
X63877Y-30216D03*
X63877Y-46358D03*
G54D14*
X59350Y-31081D03*
G54D15*
X59350Y-33681D03*
X60250Y-33681D03*
X58450Y-33681D03*
G54D16*
X54281Y-36537D03*
X54281Y-37537D03*
X54281Y-38037D03*
X54281Y-38537D03*
X54281Y-39037D03*
X54281Y-39537D03*
X54281Y-40037D03*
X51624Y-40037D03*
X51624Y-39537D03*
X51624Y-39037D03*
X51624Y-38537D03*
X51624Y-38037D03*
X51624Y-37537D03*
X51624Y-37037D03*
X51624Y-36537D03*
X54281Y-37037D03*
X50738Y-36537D03*
X50738Y-37537D03*
X50738Y-38037D03*
X50738Y-38537D03*
X50738Y-39037D03*
X50738Y-39537D03*
X50738Y-40037D03*
X48080Y-40037D03*
X48080Y-39537D03*
X48080Y-39037D03*
X48080Y-38537D03*
X48080Y-38037D03*
X48080Y-37537D03*
X48080Y-37037D03*
X48080Y-36537D03*
X50738Y-37037D03*
G54D17*
X61653Y-36023D03*
X62953Y-36023D03*
X57047Y-40551D03*
X55747Y-40551D03*
X61653Y-40551D03*
X62953Y-40551D03*
X57047Y-36023D03*
X55747Y-36023D03*
G54D18*
X55413Y-31614D03*
X55413Y-33346D03*
G54D19*
X62696Y-33444D03*
X62696Y-31515D03*
G54D20*
X45362Y-33543D03*
G54D21*
X46259Y-31062D03*
G54D20*
X45811Y-33543D03*
X46708Y-33543D03*
X47157Y-33543D03*
X47157Y-43031D03*
G54D21*
X46259Y-45511D03*
G54D20*
X46708Y-43031D03*
X45811Y-43031D03*
X45362Y-43031D03*
M02*
